<svg xmlns="http://www.w3.org/2000/svg" width="750" height="686" viewBox="0 0 750 686" fill="none"><path d="M175.763 186.612C174.546 190.481 172.447 193.784 169.866 196.784C167.51 199.523 165.015 200.221 161.709 198.749C158.269 197.217 155.022 197.094 151.534 198.599C147.798 200.211 146.011 199.535 143.275 196.261C138.316 190.325 135.798 183.377 136.027 175.639C136.171 170.788 137.93 166.463 142.159 163.625C145.485 161.392 149.123 161.188 152.74 162.884C155.098 163.989 157.269 164.072 159.692 162.995C163.537 161.287 167.46 161.148 171.26 163.301C171.577 163.481 171.889 163.673 172.182 163.889C174.813 165.827 174.833 166.101 172.538 168.355C167.629 173.179 168.309 181.38 173.952 185.365C174.541 185.782 175.14 186.184 175.763 186.612Z" fill="#0F4A68"></path><path d="M165.792 149.939C166.69 154.967 161.122 161.622 156.392 160.705C155.299 154.874 162.02 149.312 165.792 149.939Z" fill="#0F4A68"></path><path d="M190.651 218.198C190.633 218.126 191.864 218.323 193.932 217.505C194.951 217.09 196.142 216.35 197.198 215.131C198.249 213.925 199.123 212.18 199.268 210.091C199.258 201.655 199.243 189.469 199.224 174.415C199.215 166.88 199.205 158.629 199.195 149.771C199.193 147.557 199.191 145.304 199.19 143.016C199.181 141.876 199.206 140.709 199.168 139.565C199.121 138.432 198.845 137.3 198.347 136.263C197.363 134.182 195.475 132.501 193.21 131.794C192.073 131.416 190.89 131.378 189.651 131.404C188.421 131.405 187.184 131.405 185.939 131.406C166.019 131.412 144.119 131.419 121.133 131.425C119.733 131.433 118.347 131.784 117.117 132.43C115.895 133.092 114.844 134.053 114.064 135.19C113.303 136.344 112.82 137.67 112.668 139.033C112.571 140.391 112.641 141.832 112.619 143.22C112.618 148.819 112.617 154.335 112.616 159.756C112.612 170.597 112.607 181.053 112.603 191.015C112.599 195.997 112.596 200.853 112.593 205.572C112.591 206.752 112.59 207.922 112.589 209.085C112.578 210.237 112.727 211.357 113.121 212.409C113.887 214.512 115.5 216.239 117.455 217.165C118.43 217.632 119.487 217.903 120.547 217.976C121.608 218.036 122.707 217.994 123.769 218.009C125.906 218.011 128.003 218.013 130.059 218.016C134.17 218.021 138.117 218.026 141.883 218.031C156.943 218.064 169.13 218.089 177.567 218.107C181.771 218.126 185.039 218.141 187.269 218.152C188.369 218.162 189.211 218.17 189.792 218.175C190.359 218.181 190.651 218.198 190.651 218.198C190.651 218.198 190.36 218.214 189.791 218.222C189.21 218.228 188.368 218.236 187.268 218.246C185.038 218.256 181.771 218.272 177.566 218.291C169.13 218.309 156.942 218.335 141.882 218.366C138.116 218.37 134.169 218.376 130.058 218.382C128.002 218.384 125.905 218.386 123.768 218.388C122.694 218.376 121.633 218.421 120.52 218.362C119.412 218.289 118.306 218.006 117.284 217.519C115.237 216.555 113.546 214.751 112.739 212.548C112.323 211.455 112.164 210.254 112.175 209.084C112.174 207.922 112.173 206.751 112.171 205.571C112.168 200.851 112.165 195.994 112.161 191.014C112.157 181.053 112.152 170.596 112.148 159.755C112.147 154.335 112.146 148.818 112.144 143.219V141.116C112.14 140.416 112.139 139.711 112.195 138.982C112.354 137.543 112.864 136.14 113.668 134.924C114.491 133.722 115.601 132.709 116.891 132.01C118.19 131.328 119.657 130.957 121.132 130.949C144.119 130.956 166.018 130.963 185.938 130.968C187.184 130.969 188.42 130.969 189.649 130.971C190.86 130.945 192.159 130.986 193.338 131.385C195.716 132.132 197.694 133.899 198.724 136.083C199.244 137.172 199.532 138.361 199.579 139.548C199.616 140.727 199.588 141.868 199.595 143.017C199.593 145.306 199.59 147.558 199.589 149.772C199.579 158.63 199.569 166.881 199.56 174.416C199.524 189.484 199.546 201.668 199.452 210.107C199.29 212.239 198.382 214.01 197.303 215.226C196.218 216.456 195.002 217.191 193.967 217.596C192.932 218.024 192.072 218.108 191.51 218.181C190.942 218.199 190.651 218.198 190.651 218.198Z" fill="#023047"></path><path d="M147.355 297.099C141.842 296.513 141.788 296.457 141.813 291.18C141.838 285.835 141.886 280.491 141.89 275.146C141.892 274.177 141.987 273.523 143.23 273.539C151.744 273.657 160.258 273.728 168.772 273.82C169.006 273.822 169.24 273.887 169.609 273.945C169.609 277.465 169.604 280.962 169.61 284.46C169.616 287.065 169.655 289.671 169.646 292.276C169.633 296.127 168.844 296.932 164.994 297.123C164.694 297.137 164.397 297.193 163.784 297.269C163.784 299.487 163.852 301.717 163.765 303.94C163.679 306.074 162.264 307.24 160.313 306.961C158.66 306.725 157.86 305.732 157.844 304.108C157.824 302.226 157.805 300.341 157.879 298.46C157.923 297.337 157.473 296.909 156.391 296.975C155.784 297.013 155.171 297.006 154.566 296.956C153.605 296.878 153.262 297.319 153.278 298.238C153.308 299.998 153.306 301.761 153.278 303.522C153.242 305.715 152.213 306.845 150.298 306.855C148.382 306.865 147.38 305.749 147.358 303.517C147.338 301.41 147.355 299.3 147.355 297.099Z" fill="#0F4A68"></path><path d="M164.817 257.229C164.116 258.527 163.344 260.024 162.662 261.288C168.284 263.998 169.827 268.228 169.577 272.108C160.384 272.108 151.189 272.108 141.919 272.108C142.316 267.028 144.847 263.568 149.157 261.211C148.409 259.749 147.71 258.382 147.012 257.016C147.143 256.943 147.276 256.87 147.407 256.797C148.192 258.143 148.976 259.49 149.81 260.922C153.929 259.267 157.967 259.366 162.031 260.929C162.853 259.549 163.614 258.273 164.374 256.998C164.521 257.073 164.668 257.151 164.817 257.229Z" fill="#0F4A68"></path><path d="M177.006 282.587C177.006 284.709 177.038 286.831 176.996 288.952C176.955 290.979 175.846 292.174 174.083 292.206C172.305 292.238 171.059 291.079 171.04 289.095C170.999 284.792 171.026 280.487 171.126 276.186C171.171 274.255 172.546 273.06 174.277 273.18C175.986 273.298 177.007 274.476 177.023 276.4C177.041 278.462 177.027 280.524 177.027 282.587C177.021 282.587 177.014 282.587 177.006 282.587Z" fill="#0F4A68"></path><path d="M140.465 282.368C140.465 284.433 140.537 286.501 140.447 288.561C140.332 291.192 138.223 292.72 136.189 291.609C135.491 291.227 134.659 290.286 134.645 289.585C134.557 284.977 134.588 280.362 134.767 275.757C134.842 273.805 135.883 272.992 137.491 273.037C139.359 273.09 140.417 274.142 140.481 276.181C140.545 278.242 140.496 280.307 140.496 282.369C140.485 282.368 140.475 282.368 140.465 282.368Z" fill="#0F4A68"></path><path d="M190.58 325.406C190.563 325.334 191.793 325.532 193.861 324.712C194.879 324.297 196.071 323.559 197.126 322.338C198.177 321.132 199.052 319.387 199.197 317.298C199.187 308.862 199.172 296.676 199.153 281.62C199.144 274.087 199.134 265.835 199.124 256.978C199.122 254.764 199.12 252.511 199.117 250.223C199.108 249.083 199.134 247.917 199.096 246.772C199.049 245.639 198.771 244.507 198.275 243.47C197.29 241.389 195.403 239.708 193.138 239.001C191.999 238.623 190.818 238.585 189.578 238.611C188.349 238.612 187.111 238.612 185.867 238.613C165.946 238.619 144.047 238.626 121.061 238.632C119.661 238.64 118.275 238.992 117.044 239.637C115.823 240.299 114.772 241.26 113.991 242.397C113.231 243.551 112.748 244.877 112.595 246.24C112.499 247.598 112.568 249.039 112.547 250.427C112.546 256.026 112.545 261.542 112.544 266.963C112.539 277.804 112.535 288.26 112.53 298.223C112.527 303.204 112.524 308.06 112.52 312.779C112.519 313.959 112.518 315.13 112.518 316.292C112.507 317.444 112.656 318.564 113.05 319.616C113.816 321.719 115.429 323.446 117.384 324.372C118.359 324.839 119.416 325.11 120.476 325.183C121.537 325.243 122.635 325.201 123.698 325.216C125.834 325.218 127.932 325.22 129.988 325.223C134.1 325.228 138.046 325.233 141.812 325.238C156.87 325.271 169.058 325.296 177.496 325.314C181.7 325.333 184.968 325.348 187.198 325.359C188.298 325.369 189.14 325.377 189.721 325.382C190.288 325.39 190.58 325.406 190.58 325.406C190.58 325.406 190.289 325.423 189.721 325.43C189.14 325.436 188.298 325.444 187.198 325.454C184.968 325.464 181.701 325.48 177.496 325.499C169.058 325.517 156.871 325.543 141.812 325.574C138.046 325.579 134.099 325.584 129.988 325.59C127.932 325.592 125.834 325.594 123.698 325.597C122.624 325.584 121.563 325.629 120.45 325.57C119.342 325.497 118.236 325.214 117.213 324.728C115.166 323.763 113.475 321.96 112.667 319.756C112.252 318.663 112.092 317.462 112.104 316.291C112.102 315.129 112.101 313.958 112.101 312.778C112.098 308.058 112.095 303.201 112.091 298.221C112.087 288.26 112.082 277.803 112.078 266.962C112.077 261.542 112.076 256.025 112.074 250.426V248.323C112.07 247.623 112.069 246.918 112.125 246.189C112.284 244.75 112.794 243.347 113.598 242.131C114.421 240.929 115.53 239.916 116.821 239.217C118.119 238.535 119.587 238.164 121.062 238.156C144.049 238.163 165.948 238.17 185.868 238.175C187.113 238.176 188.351 238.176 189.579 238.178C190.79 238.152 192.089 238.193 193.267 238.592C195.646 239.339 197.623 241.106 198.652 243.29C199.172 244.379 199.462 245.569 199.508 246.755C199.545 247.934 199.517 249.075 199.524 250.224C199.522 252.513 199.519 254.765 199.517 256.979C199.507 265.837 199.497 274.088 199.488 281.622C199.452 296.69 199.473 308.874 199.38 317.313C199.217 319.445 198.31 321.216 197.231 322.432C196.146 323.662 194.93 324.397 193.895 324.802C192.859 325.229 191.999 325.314 191.438 325.387C190.871 325.408 190.58 325.406 190.58 325.406Z" fill="#023047"></path><path d="M175.806 388.139C168.635 388.139 161.603 388.139 154.411 388.139C154.411 383.072 154.411 377.844 154.411 372.418C161.461 371.388 168.566 370.351 175.806 369.293C175.806 375.58 175.806 381.675 175.806 388.139Z" fill="#0F4A68"></path><path d="M154.357 390.34C161.556 390.34 168.594 390.34 175.77 390.34C175.77 396.521 175.77 402.665 175.77 408.918C168.601 407.976 161.516 407.044 154.357 406.102C154.357 400.805 154.357 395.674 154.357 390.34Z" fill="#0F4A68"></path><path d="M152.04 372.582C152.04 377.808 152.04 382.868 152.04 388.162C146.669 388.162 141.312 388.162 135.689 388.162C135.689 383.872 135.67 379.703 135.729 375.535C135.733 375.234 136.264 374.725 136.603 374.676C141.697 373.947 146.799 373.28 152.04 372.582Z" fill="#0F4A68"></path><path d="M135.887 390.285C141.221 390.285 146.59 390.285 152.062 390.285C152.062 395.442 152.062 400.445 152.062 405.781C146.697 405.092 141.387 404.41 135.887 403.703C135.887 399.238 135.887 394.8 135.887 390.285Z" fill="#0F4A68"></path><path d="M190.51 432.606C190.492 432.533 191.722 432.732 193.791 431.912C194.809 431.498 196.001 430.759 197.056 429.538C198.107 428.332 198.982 426.587 199.127 424.499C199.117 416.062 199.102 403.877 199.083 388.821C199.074 381.287 199.064 373.035 199.054 364.179C199.052 361.964 199.049 359.712 199.047 357.423C199.038 356.284 199.064 355.117 199.026 353.973C198.979 352.84 198.701 351.708 198.205 350.67C197.22 348.589 195.332 346.908 193.068 346.201C191.93 345.824 190.748 345.786 189.508 345.811C188.278 345.812 187.041 345.812 185.797 345.814C165.876 345.819 143.977 345.826 120.991 345.833C119.59 345.841 118.205 346.191 116.974 346.838C115.751 347.499 114.701 348.46 113.921 349.598C113.161 350.751 112.678 352.077 112.525 353.44C112.429 354.798 112.498 356.24 112.477 357.628C112.476 363.226 112.475 368.742 112.474 374.164C112.469 385.004 112.465 395.46 112.46 405.423C112.457 410.403 112.453 415.261 112.45 419.979C112.449 421.159 112.448 422.33 112.447 423.493C112.435 424.645 112.585 425.764 112.979 426.816C113.745 428.92 115.357 430.647 117.312 431.572C118.288 432.039 119.345 432.311 120.405 432.384C121.466 432.443 122.564 432.402 123.626 432.416C125.763 432.419 127.861 432.421 129.917 432.423C134.029 432.429 137.975 432.433 141.741 432.439C156.8 432.471 168.987 432.496 177.424 432.514C181.629 432.533 184.896 432.549 187.126 432.559C188.227 432.569 189.069 432.577 189.649 432.582C190.218 432.589 190.51 432.606 190.51 432.606C190.51 432.606 190.219 432.623 189.649 432.631C189.069 432.636 188.227 432.644 187.126 432.654C184.896 432.664 181.63 432.68 177.424 432.699C168.987 432.717 156.8 432.743 141.741 432.775C137.975 432.779 134.028 432.785 129.917 432.79C127.861 432.792 125.763 432.795 123.626 432.797C122.553 432.785 121.492 432.83 120.379 432.77C119.27 432.697 118.163 432.414 117.141 431.928C115.094 430.963 113.403 429.16 112.596 426.957C112.18 425.863 112.021 424.663 112.032 423.492C112.031 422.329 112.03 421.158 112.029 419.978C112.025 415.258 112.022 410.402 112.019 405.422C112.014 395.46 112.01 385.003 112.005 374.162C112.004 368.742 112.003 363.225 112.002 357.627V355.523C111.997 354.824 111.996 354.119 112.052 353.389C112.212 351.949 112.722 350.547 113.526 349.331C114.349 348.128 115.457 347.115 116.748 346.417C118.046 345.734 119.514 345.363 120.99 345.355C143.977 345.362 165.875 345.369 185.796 345.375C187.041 345.376 188.278 345.376 189.507 345.377C190.717 345.351 192.017 345.393 193.194 345.791C195.574 346.538 197.55 348.305 198.581 350.489C199.101 351.579 199.39 352.768 199.437 353.955C199.474 355.134 199.446 356.275 199.452 357.423C199.45 359.712 199.448 361.964 199.446 364.179C199.436 373.036 199.425 381.287 199.416 388.821C199.381 403.889 199.402 416.074 199.308 424.512C199.145 426.645 198.237 428.415 197.158 429.632C196.074 430.861 194.857 431.597 193.822 432.001C192.787 432.429 191.927 432.513 191.365 432.587C190.8 432.607 190.51 432.606 190.51 432.606Z" fill="#023047"></path><path d="M231.068 151.193C231.068 152.788 229.775 154.081 228.18 154.081C226.585 154.081 225.292 152.787 225.292 151.193C225.292 149.598 226.586 148.305 228.18 148.305C229.776 148.304 231.068 149.597 231.068 151.193Z" fill="#023047"></path><path d="M228.039 151.192C228.039 151.202 227.908 151.213 227.651 151.223C227.363 151.23 226.987 151.239 226.511 151.252C225.998 151.26 225.38 151.269 224.657 151.28C223.924 151.283 223.088 151.33 222.173 151.555C220.36 151.972 218.198 153.172 216.737 155.417C216.02 156.532 215.501 157.89 215.338 159.386C215.241 160.877 215.323 162.529 215.307 164.221C215.329 177.869 215.359 196.663 215.392 217.423C215.358 238.19 215.328 256.987 215.307 270.634C215.415 274.128 213.782 277.153 211.747 278.957C209.699 280.814 207.316 281.553 205.414 281.694C203.492 281.77 202.027 281.684 201.021 281.686C200.545 281.674 200.169 281.665 199.881 281.657C199.624 281.647 199.493 281.636 199.493 281.626C199.493 281.616 199.624 281.606 199.881 281.596C200.169 281.588 200.545 281.579 201.021 281.567C202.018 281.528 203.513 281.576 205.394 281.466C207.253 281.294 209.561 280.539 211.526 278.715C213.478 276.934 215.024 274.021 214.892 270.633C214.87 256.985 214.839 238.189 214.807 217.422C214.84 196.663 214.871 177.868 214.892 164.22C214.922 162.51 214.852 160.916 214.967 159.346C215.152 157.789 215.706 156.383 216.463 155.236C218.005 152.928 220.254 151.726 222.12 151.333C223.059 151.119 223.926 151.09 224.657 151.105C225.38 151.116 225.998 151.125 226.511 151.133C226.987 151.145 227.364 151.154 227.651 151.162C227.908 151.172 228.039 151.182 228.039 151.192Z" fill="#023047"></path><path d="M202.379 281.884C202.379 283.48 201.086 284.773 199.491 284.773C197.896 284.773 196.603 283.48 196.603 281.884C196.603 280.289 197.897 278.996 199.491 278.996C201.086 278.996 202.379 280.29 202.379 281.884Z" fill="#023047"></path><path d="M291.762 553.055V584.52H337.775H388.525V553.055H291.762Z" fill="#406D84"></path><path d="M287.703 544.242V553.039H391.91V544.242H337.776H287.703Z" fill="#1F4D64"></path><path d="M339.806 584.504H388.525V553.039H391.909V544.242H337.775V552.225L339.806 584.504Z" fill="#1F4D64"></path><path d="M324.918 558.125H305.295V562.861H324.918V558.125Z" fill="#1F4D64"></path><path d="M327.968 568.777H302.77V578.779H327.968V568.777Z" fill="#829BA7"></path><path d="M607.106 387.324H507.506V575.602H607.106V387.324Z" fill="#134964"></path><path d="M577.548 387.324H477.947V575.602H577.548V387.324Z" fill="#216587"></path><path d="M570.216 426.079H484.724V396.234H570.216V426.079ZM485.774 425.029H569.166V397.285H485.774V425.029Z" fill="#032738"></path><path d="M538.715 402.713H517.383C514.314 402.713 511.827 400.225 511.827 397.156V396.766H544.272V397.156C544.271 400.225 541.784 402.713 538.715 402.713Z" fill="#EBEBEB"></path><path d="M570.216 463.993H484.724V434.148H570.216V463.993ZM485.774 462.943H569.166V435.199H485.774V462.943Z" fill="#032738"></path><path d="M538.715 440.619H517.383C514.314 440.619 511.827 438.132 511.827 435.063V434.672H544.272V435.063C544.271 438.132 541.784 440.619 538.715 440.619Z" fill="#EBEBEB"></path><path d="M570.216 501.907H484.724V472.062H570.216V501.907ZM485.774 500.857H569.166V473.114H485.774V500.857Z" fill="#032738"></path><path d="M538.715 478.533H517.383C514.314 478.533 511.827 476.046 511.827 472.977V472.586H544.272V472.977C544.271 476.046 541.784 478.533 538.715 478.533Z" fill="#EBEBEB"></path><path d="M570.216 539.813H484.724V509.969H570.216V539.813ZM485.774 538.763H569.166V511.02H485.774V538.763Z" fill="#032738"></path><path d="M538.715 516.439H517.383C514.314 516.439 511.827 513.952 511.827 510.883V510.492H544.272V510.883C544.271 513.951 541.784 516.439 538.715 516.439Z" fill="#EBEBEB"></path><path d="M581.714 380.285H473.529V389.664H581.714V380.285Z" fill="#488FB3"></path><path d="M614.247 380.285H581.714V389.664H614.247V380.285Z" fill="#1F719A"></path><path d="M483.181 575.605H477.947V585.223H483.181V575.605Z" fill="#032738"></path><path d="M515.521 575.605H510.288V585.223H515.521V575.605Z" fill="#032738"></path><path d="M574.595 575.605H569.361V585.223H574.595V575.605Z" fill="#032738"></path><path d="M604.131 575.605H598.897V585.223H604.131V575.605Z" fill="#032738"></path><path d="M570.164 355.242L580.247 381.034L573.98 381.005L568.956 365.155L570.164 355.242Z" fill="#032738"></path><path d="M535.737 331.414L532.271 380.833L568.051 381.58L572.077 331.414H535.737Z" fill="#EBEBEB"></path><path d="M539.316 335.389L536.431 376.523L563.029 377.77L566.745 335.145L539.316 335.389Z" fill="#FAFAFA"></path><path d="M545.153 341.207L542.995 370.121H557.668L560.256 341.207H545.153Z" fill="#032738"></path><path d="M609.019 101V207.472H456.096L450.587 101.744L609.019 101Z" fill="#4F6E7D"></path><path d="M450.587 101.739V207.242H603.51V101.739L450.587 101.739Z" fill="#69818D"></path><path d="M604.236 207.966H449.861V101.012H604.236V207.966ZM451.312 206.515H602.785V102.463H451.312V206.515Z" fill="#516671"></path><path d="M586.948 114.852H467.15V194.14H586.948V114.852Z" fill="#F6F9FE"></path><path d="M586.947 114.844C586.947 114.844 586.741 114.858 586.357 114.864C585.951 114.869 585.388 114.876 584.653 114.885C583.135 114.895 580.932 114.908 578.074 114.926C572.319 114.948 563.954 114.98 553.387 115.019C532.261 115.061 502.358 115.12 467.151 115.19L467.496 114.843C467.506 139.067 467.517 165.909 467.528 194.121V194.13L467.151 193.753C512.342 193.782 554.006 193.808 586.948 193.829L586.647 194.13C586.714 170.001 586.768 150.218 586.806 136.441C586.838 129.555 586.864 124.176 586.882 120.489C586.897 118.667 586.908 117.269 586.916 116.297C586.926 115.348 586.947 114.844 586.947 114.844C586.947 114.844 586.969 115.306 586.98 116.235C586.988 117.193 586.999 118.573 587.014 120.371C587.032 124.043 587.057 129.399 587.09 136.256C587.128 150.076 587.182 169.925 587.248 194.131L587.249 194.432H586.947C554.006 194.453 512.341 194.479 467.149 194.508H466.771V194.13V194.121C466.782 165.909 466.792 139.067 466.802 114.843V114.496L467.149 114.497C502.45 114.567 532.432 114.626 553.614 114.668C564.147 114.707 572.487 114.74 578.222 114.761C581.05 114.779 583.231 114.794 584.732 114.803C585.449 114.812 586 114.818 586.396 114.823C586.769 114.831 586.947 114.844 586.947 114.844Z" fill="#E0E0E0"></path><path d="M450.587 101.444C450.651 101.362 451.652 102.018 453.216 103.147C454.78 104.276 456.91 105.879 459.211 107.719C461.512 109.561 463.535 111.302 464.959 112.607C466.384 113.912 467.216 114.771 467.149 114.848C467.006 115.009 463.33 111.977 458.738 108.31C454.143 104.647 450.452 101.616 450.587 101.444Z" fill="#E0E0E0"></path><path d="M603.511 101.741C603.64 101.905 600.037 104.972 595.464 108.591C590.889 112.211 587.077 115.013 586.948 114.849C586.819 114.685 590.421 111.619 594.996 107.998C599.568 104.379 603.381 101.577 603.511 101.741Z" fill="#E0E0E0"></path><path d="M603.389 207.261C597.706 202.655 592.022 198.048 586.339 193.441L603.389 207.261Z" fill="white"></path><path d="M586.339 193.444C586.471 193.282 590.394 196.244 595.102 200.06C599.812 203.877 603.522 207.102 603.391 207.263C603.259 207.425 599.337 204.464 594.627 200.647C589.918 196.83 586.208 193.606 586.339 193.444Z" fill="#E0E0E0"></path><path d="M450.587 207.241C450.458 207.078 454.023 204.042 458.549 200.463C463.077 196.882 466.851 194.113 466.981 194.276C467.11 194.44 463.546 197.474 459.019 201.055C454.491 204.635 450.716 207.405 450.587 207.241Z" fill="#E0E0E0"></path><path d="M491.473 139.557V166.105H566.852V139.557H491.473Z" fill="#194C66"></path><path d="M607.166 585.218C607.166 585.379 498.249 585.51 363.923 585.51C229.551 585.51 120.656 585.379 120.656 585.218C120.656 585.056 229.551 584.926 363.923 584.926C498.249 584.926 607.166 585.057 607.166 585.218Z" fill="#263238"></path><path d="M395.607 523.186L258.287 523.105C241.771 523.096 228.388 509.702 228.392 493.186L228.459 148.919C228.462 132.394 241.864 119.003 258.389 119.012L395.711 119.093C412.226 119.103 425.608 132.496 425.606 149.011L425.538 493.278C425.535 509.804 412.133 523.196 395.607 523.186Z" fill="#667E83"></path><path d="M395.258 131.37L368.634 131.354C365.064 131.353 362.168 134.377 362.168 138.108L362.166 142.938C362.166 146.671 359.27 149.696 355.7 149.692L303.804 149.662C300.235 149.66 297.34 146.632 297.341 142.9L297.342 138.07C297.342 134.338 294.448 131.31 290.877 131.308L281.514 131.303L258.211 131.289C246.638 131.282 237.252 140.661 237.25 152.235L237.184 488.264C237.181 499.832 246.553 509.212 258.12 509.219L395.167 509.298C406.74 509.305 416.125 499.927 416.128 488.354L416.194 152.323C416.197 140.756 406.825 131.378 395.258 131.37Z" fill="#F6F9FE"></path><path d="M415.696 187.439C415.696 187.532 375.745 187.609 326.473 187.609C277.184 187.609 237.241 187.532 237.241 187.439C237.241 187.346 277.184 187.27 326.473 187.27C375.746 187.27 415.696 187.345 415.696 187.439Z" fill="#EBEBEB"></path><path d="M262.084 171.488C261.955 171.488 261.826 171.444 261.722 171.353L256.5 166.773C256.379 166.667 256.31 166.514 256.313 166.352C256.315 166.192 256.387 166.04 256.51 165.937L261.732 161.596C261.966 161.401 262.312 161.434 262.505 161.666C262.7 161.9 262.667 162.247 262.435 162.44L257.708 166.369L262.446 170.524C262.674 170.724 262.697 171.072 262.497 171.3C262.389 171.426 262.237 171.488 262.084 171.488Z" fill="#667E83"></path><path d="M366.705 167.751C366.705 167.91 351.628 168.038 333.033 168.038C314.432 168.038 299.357 167.91 299.357 167.751C299.357 167.593 314.431 167.465 333.033 167.465C351.628 167.465 366.705 167.593 366.705 167.751Z" fill="#023047"></path><path d="M299.571 338.317L299.969 337.536C300.654 338.207 301.874 338.701 303.135 338.701C304.931 338.701 305.712 337.948 305.712 337.001C305.712 334.369 299.805 335.987 299.805 332.437C299.805 331.025 300.902 329.805 303.342 329.805C304.424 329.805 305.548 330.12 306.316 330.655L305.974 331.463C305.152 330.929 304.192 330.668 303.342 330.668C301.587 330.668 300.806 331.45 300.806 332.409C300.806 335.041 306.714 333.451 306.714 336.945C306.714 338.358 305.59 339.564 303.136 339.564C301.696 339.566 300.284 339.057 299.571 338.317Z" fill="#667E83"></path><path d="M312.003 336.165V339.483H311.002V336.165L307.164 329.887H308.247L311.537 335.273L314.827 329.887H315.841L312.003 336.165Z" fill="#667E83"></path><path d="M316.291 338.317L316.689 337.536C317.373 338.207 318.594 338.701 319.855 338.701C321.651 338.701 322.432 337.948 322.432 337.001C322.432 334.369 316.525 335.987 316.525 332.437C316.525 331.025 317.622 329.805 320.061 329.805C321.143 329.805 322.267 330.12 323.035 330.655L322.693 331.463C321.871 330.929 320.911 330.668 320.061 330.668C318.305 330.668 317.525 331.45 317.525 332.409C317.525 335.041 323.433 333.451 323.433 336.945C323.433 338.358 322.309 339.564 319.855 339.564C318.416 339.566 317.004 339.057 316.291 338.317Z" fill="#667E83"></path><path d="M327.365 330.764H323.993V329.887H331.751V330.764H328.379V339.482H327.365V330.764Z" fill="#667E83"></path><path d="M340.153 338.605V339.482H333.368V329.887H339.947V330.764H334.382V334.176H339.344V335.04H334.382V338.604L340.153 338.605Z" fill="#667E83"></path><path d="M352.501 329.887V339.482H351.528V331.806L347.758 338.262H347.279L343.509 331.847V339.483H342.536V329.888H343.372L347.539 337.003L351.665 329.888L352.501 329.887Z" fill="#667E83"></path><path d="M291.626 351.819V346.184H293.955V351.733C293.955 353.644 294.79 354.435 296.198 354.435C297.622 354.435 298.441 353.644 298.441 351.733V346.184H300.741V351.819C300.741 354.782 299.044 356.42 296.183 356.42C293.322 356.419 291.626 354.781 291.626 351.819Z" fill="#667E83"></path><path d="M311.765 349.835C311.765 352.078 310.083 353.472 307.394 353.472H305.367V356.247H303.039V346.184H307.394C310.083 346.184 311.765 347.578 311.765 349.835ZM309.407 349.835C309.407 348.729 308.688 348.081 307.264 348.081H305.367V351.574H307.264C308.688 351.575 309.407 350.929 309.407 349.835Z" fill="#667E83"></path><path d="M320.359 351.058H322.486V355.141C321.379 355.974 319.855 356.42 318.418 356.42C315.256 356.42 312.927 354.249 312.927 351.216C312.927 348.183 315.256 346.012 318.462 346.012C320.23 346.012 321.695 346.616 322.674 347.751L321.179 349.131C320.446 348.355 319.598 347.995 318.577 347.995C316.622 347.995 315.285 349.303 315.285 351.215C315.285 353.098 316.622 354.435 318.548 354.435C319.181 354.435 319.77 354.319 320.359 354.003V351.058Z" fill="#667E83"></path><path d="M331.053 356.247L329.111 353.444H328.997H326.97V356.247H324.641V346.184H328.997C331.685 346.184 333.367 347.578 333.367 349.835C333.367 351.346 332.604 352.452 331.296 353.012L333.553 356.247H331.053ZM328.867 348.082H326.971V351.59H328.867C330.291 351.59 331.01 350.929 331.01 349.835C331.009 348.729 330.29 348.082 328.867 348.082Z" fill="#667E83"></path><path d="M341.833 354.091H337.16L336.269 356.247H333.883L338.367 346.184H340.667L345.167 356.247H342.723L341.833 354.091ZM341.099 352.323L339.504 348.47L337.908 352.323H341.099Z" fill="#667E83"></path><path d="M346.214 346.184H350.785C354.078 346.184 356.334 348.169 356.334 351.216C356.334 354.264 354.077 356.247 350.785 356.247H346.214V346.184ZM350.671 354.335C352.669 354.335 353.977 353.141 353.977 351.216C353.977 349.29 352.669 348.097 350.671 348.097H348.543V354.336H350.671V354.335Z" fill="#667E83"></path><path d="M365.878 354.379V356.247H358.087V346.184H365.691V348.053H360.401V350.237H365.073V352.049H360.401V354.377H365.878V354.379Z" fill="#667E83"></path><path d="M298.034 426.776C298.034 424.732 299.589 423.227 301.693 423.227C302.711 423.227 303.628 423.566 304.246 424.243L303.776 424.712C303.208 424.133 302.51 423.885 301.713 423.885C300.027 423.885 298.76 425.122 298.76 426.776C298.76 428.432 300.027 429.668 301.713 429.668C302.51 429.668 303.208 429.418 303.776 428.83L304.246 429.299C303.627 429.976 302.71 430.327 301.682 430.327C299.589 430.327 298.034 428.82 298.034 426.776Z" fill="#667E83"></path><path d="M311.655 423.285V430.266H310.927V427.046H306.559V430.266H305.821V423.285H306.559V426.397H310.927V423.285H311.655Z" fill="#667E83"></path><path d="M318.862 429.628V430.266H313.925V423.285H318.712V423.923H314.664V426.407H318.274V427.036H314.664V429.628H318.862Z" fill="#667E83"></path><path d="M319.938 426.776C319.938 424.732 321.494 423.227 323.598 423.227C324.615 423.227 325.533 423.566 326.15 424.243L325.682 424.712C325.114 424.133 324.415 423.885 323.618 423.885C321.933 423.885 320.666 425.122 320.666 426.776C320.666 428.432 321.933 429.668 323.618 429.668C324.415 429.668 325.114 429.418 325.682 428.83L326.15 429.299C325.532 429.976 324.614 430.327 323.587 430.327C321.494 430.327 319.938 428.82 319.938 426.776Z" fill="#667E83"></path><path d="M329.887 426.985L328.461 428.431V430.266H327.723V423.285H328.461V427.504L332.56 423.285H333.408L330.386 426.446L333.616 430.265H332.739L329.887 426.985Z" fill="#667E83"></path><path d="M334.812 423.285H335.55V430.266H334.812V423.285Z" fill="#667E83"></path><path d="M343.658 423.285V430.266H343.049L338.561 424.602V430.266H337.823V423.285H338.432L342.929 428.95V423.285H343.658Z" fill="#667E83"></path><path d="M350.845 426.776H351.553V429.438C350.894 430.027 349.957 430.327 348.99 430.327C346.866 430.327 345.31 428.82 345.31 426.776C345.31 424.732 346.866 423.227 349 423.227C350.057 423.227 350.974 423.566 351.593 424.233L351.134 424.702C350.545 424.123 349.847 423.885 349.029 423.885C347.303 423.885 346.038 425.112 346.038 426.776C346.038 428.432 347.305 429.668 349.019 429.668C349.687 429.668 350.306 429.518 350.845 429.13V426.776Z" fill="#667E83"></path><path d="M353.127 429.768C353.127 429.46 353.366 429.23 353.656 429.23C353.944 429.23 354.195 429.46 354.195 429.768C354.195 430.077 353.946 430.316 353.656 430.316C353.366 430.316 353.127 430.077 353.127 429.768Z" fill="#667E83"></path><path d="M355.24 429.768C355.24 429.46 355.479 429.23 355.769 429.23C356.058 429.23 356.307 429.46 356.307 429.768C356.307 430.077 356.058 430.316 355.769 430.316C355.479 430.316 355.24 430.077 355.24 429.768Z" fill="#667E83"></path><path d="M357.353 429.768C357.353 429.46 357.592 429.23 357.882 429.23C358.171 429.23 358.42 429.46 358.42 429.768C358.42 430.077 358.171 430.316 357.882 430.316C357.592 430.316 357.353 430.077 357.353 429.768Z" fill="#667E83"></path><path d="M311.904 244.907C314.123 243.567 316.484 242.55 318.92 241.858L320.365 234.913L332.099 234.707L333.788 241.596C336.247 242.202 338.644 243.134 340.909 244.397L346.84 240.509L355.283 248.661L351.608 254.724C352.948 256.943 353.966 259.306 354.656 261.742L361.6 263.187L361.807 274.922L354.917 276.61C354.31 279.068 353.378 281.465 352.116 283.73L356.003 289.661L347.851 298.104L341.789 294.427C339.57 295.768 337.207 296.784 334.771 297.476L333.326 304.421L321.591 304.627L319.902 297.737C317.443 297.13 315.048 296.197 312.783 294.936L306.853 298.824L298.41 290.671L302.086 284.609C300.746 282.39 299.728 280.027 299.037 277.591L292.091 276.145L291.886 264.411L298.776 262.721C299.382 260.263 300.316 257.867 301.577 255.602L297.689 249.671L305.84 241.228L311.904 244.907ZM318.159 260.539C313.329 265.542 313.469 273.512 318.472 278.342C323.474 283.171 331.445 283.031 336.273 278.029C341.103 273.026 340.962 265.056 335.96 260.226C330.958 255.396 322.988 255.537 318.159 260.539Z" fill="#457B96"></path><path d="M367.483 212.641C368.621 212.449 369.765 212.414 370.887 212.526L372.621 209.887L377.511 211.72L377.084 214.849C378.003 215.501 378.843 216.279 379.574 217.172L382.664 216.532L384.825 221.286L382.312 223.194C382.504 224.333 382.539 225.476 382.427 226.598L385.066 228.332L383.233 233.222L380.105 232.795C379.452 233.714 378.674 234.554 377.781 235.285L378.42 238.375L373.666 240.537L371.757 238.024C370.62 238.216 369.475 238.251 368.354 238.139L366.62 240.778L361.73 238.944L362.157 235.816C361.239 235.163 360.399 234.385 359.668 233.492L356.578 234.132L354.415 229.378L356.928 227.469C356.736 226.332 356.701 225.187 356.812 224.066L354.174 222.332L356.006 217.442L359.135 217.868C359.787 216.95 360.565 216.111 361.458 215.379L360.819 212.289L365.573 210.126L367.483 212.641ZM367.517 220.134C364.7 221.416 363.454 224.737 364.737 227.554C366.018 230.372 369.34 231.616 372.157 230.335C374.973 229.054 376.218 225.732 374.937 222.915C373.656 220.098 370.333 218.853 367.517 220.134Z" fill="#457B96"></path><path d="M280.592 226.738C281.306 226.036 282.104 225.444 282.958 224.967L282.883 222.227L287.276 221.105L288.524 223.544C289.502 223.553 290.486 223.69 291.451 223.963L293.334 221.973L297.233 224.286L296.391 226.892C297.093 227.607 297.686 228.404 298.162 229.259L300.901 229.184L302.024 233.576L299.585 234.825C299.576 235.803 299.439 236.787 299.166 237.75L301.155 239.633L298.843 243.533L296.236 242.691C295.522 243.393 294.724 243.985 293.87 244.462L293.946 247.202L289.553 248.323L288.304 245.883C287.326 245.874 286.342 245.737 285.379 245.465L283.496 247.454L279.596 245.142L280.438 242.536C279.736 241.822 279.144 241.024 278.667 240.17L275.929 240.245L274.807 235.853L277.247 234.604C277.256 233.626 277.393 232.642 277.666 231.679L275.677 229.796L277.989 225.896L280.592 226.738ZM284.336 232.057C282.966 234.368 283.728 237.352 286.039 238.722C288.349 240.092 291.333 239.329 292.703 237.018C294.073 234.708 293.31 231.724 290.999 230.354C288.689 228.985 285.706 229.747 284.336 232.057Z" fill="#457B96"></path><path d="M382.871 413.374H273.582C266.621 413.374 260.979 407.731 260.979 400.771V399.264C260.979 392.303 266.622 386.66 273.582 386.66H382.871C389.832 386.66 395.475 392.303 395.475 399.264V400.771C395.474 407.731 389.831 413.374 382.871 413.374Z" fill="#F5F5F5"></path><path d="M323.136 413.374H273.58C266.619 413.374 260.978 407.731 260.978 400.771V399.264C260.978 392.303 266.621 386.66 273.58 386.66H323.136C330.097 386.66 335.74 392.303 335.74 399.264V400.771C335.74 407.731 330.097 413.374 323.136 413.374Z" fill="#457B96"></path><path d="M367.903 401.964C367.903 403.348 366.944 404.412 365.006 404.412C363.8 404.412 362.677 403.963 362.098 403.301L362.404 402.84C362.901 403.42 363.882 403.856 364.994 403.856C366.519 403.856 367.3 403.087 367.3 401.989C367.3 400.807 366.578 400.086 364.332 400.086H362.653L363.091 396.078H367.479V396.622H363.6L363.281 399.542H364.464C366.981 399.541 367.903 400.498 367.903 401.964Z" fill="#457B96"></path><path d="M374.445 401.964C374.445 403.348 373.487 404.412 371.548 404.412C370.343 404.412 369.219 403.963 368.64 403.301L368.946 402.84C369.443 403.42 370.424 403.856 371.536 403.856C373.061 403.856 373.842 403.087 373.842 401.989C373.842 400.807 373.12 400.086 370.874 400.086H369.195L369.633 396.078H374.019V396.622H370.141L369.822 399.542H371.004C373.523 399.541 374.445 400.498 374.445 401.964Z" fill="#457B96"></path><path d="M375.348 398.266C375.348 396.918 376.092 396.031 377.168 396.031C378.245 396.031 379.002 396.918 379.002 398.266C379.002 399.613 378.245 400.499 377.168 400.499C376.092 400.499 375.348 399.613 375.348 398.266ZM378.553 398.266C378.553 397.118 377.997 396.433 377.169 396.433C376.354 396.433 375.798 397.131 375.798 398.266C375.798 399.401 376.354 400.098 377.169 400.098C377.997 400.098 378.553 399.411 378.553 398.266ZM382.217 396.078H382.725L377.074 404.354H376.566L382.217 396.078ZM380.291 402.167C380.291 400.819 381.048 399.933 382.123 399.933C383.199 399.933 383.944 400.819 383.944 402.167C383.944 403.515 383.199 404.401 382.123 404.401C381.047 404.401 380.291 403.515 380.291 402.167ZM383.493 402.167C383.493 401.032 382.939 400.334 382.122 400.334C381.295 400.334 380.739 401.02 380.739 402.167C380.739 403.313 381.295 404 382.122 404C382.939 403.999 383.493 403.301 383.493 402.167Z" fill="#457B96"></path><g opacity="0.2"><path d="M293.501 386.664L283.444 413.058H290.833L300.203 386.664H293.501Z" fill="#F6F9FE"></path></g><g opacity="0.2"><path d="M311.63 386.664L301.573 413.058H308.962L318.332 386.664H311.63Z" fill="#F6F9FE"></path></g><g opacity="0.2"><path d="M329.388 388.648L320.027 413.219H324.426C325.641 413.059 327.815 412.09 327.815 412.09L334.266 393.919C333.062 391.707 331.424 389.962 329.388 388.648Z" fill="#F6F9FE"></path></g><g opacity="0.2"><path d="M275.882 386.664L266.635 410.934C268.508 412.182 270.699 412.895 273.214 413.058L282.585 386.664H275.882Z" fill="#F6F9FE"></path></g><path d="M382.871 413.376C382.864 413.314 383.939 413.409 385.881 412.938C387.774 412.463 390.671 411.222 392.931 408.151C394.055 406.641 394.93 404.667 395.217 402.389C395.351 401.261 395.349 400.044 395.298 398.798C395.274 397.557 395.007 396.277 394.554 395.028C393.666 392.519 391.811 390.133 389.202 388.599C387.904 387.831 386.425 387.282 384.852 387.032C383.287 386.779 381.615 386.89 379.913 386.87C352.685 386.892 315.1 386.922 273.587 386.955C272.317 386.976 271.059 387.166 269.853 387.532C268.653 387.918 267.524 388.497 266.496 389.208C264.459 390.655 262.853 392.709 262.029 395.038C260.543 399.665 261.028 405.247 264.286 408.837C265.85 410.647 267.938 411.968 270.195 412.609C272.448 413.295 274.849 413.048 277.207 413.095C281.917 413.098 286.526 413.102 291.025 413.105C309.013 413.129 325.214 413.15 338.826 413.168C352.419 413.207 363.425 413.239 371.053 413.261C374.844 413.285 377.791 413.304 379.815 413.316C380.803 413.329 381.561 413.339 382.093 413.345C382.607 413.356 382.871 413.376 382.871 413.376C382.871 413.376 382.608 413.396 382.095 413.406C381.563 413.413 380.805 413.423 379.817 413.435C377.795 413.448 374.846 413.467 371.055 413.49C363.427 413.513 352.421 413.544 338.829 413.584C325.217 413.601 309.016 413.623 291.027 413.646C286.528 413.65 281.919 413.653 277.209 413.656C276.033 413.658 274.849 413.658 273.659 413.659C272.449 413.622 271.218 413.521 270.041 413.157C267.678 412.488 265.493 411.109 263.855 409.215C262.207 407.332 261.118 404.934 260.803 402.405C260.665 401.124 260.66 399.889 260.721 398.611C260.768 397.329 261.03 396.049 261.483 394.84C262.347 392.4 264.025 390.248 266.159 388.733C267.236 387.987 268.418 387.382 269.677 386.976C270.941 386.591 272.26 386.392 273.588 386.371C315.101 386.405 352.685 386.435 379.915 386.456C381.609 386.484 383.28 386.376 384.915 386.645C386.536 386.908 388.059 387.483 389.392 388.28C392.071 389.872 393.962 392.337 394.86 394.917C396.465 400.148 395.52 405.262 393.114 408.287C390.783 411.393 387.827 412.611 385.909 413.053C385.424 413.194 384.98 413.232 384.603 413.289C384.226 413.356 383.905 413.362 383.648 413.368C383.133 413.382 382.871 413.376 382.871 413.376Z" fill="#667E83"></path><path d="M278.724 482.943V491.919C278.724 492.697 277.865 493.17 277.209 492.752L270.135 488.264C269.525 487.877 269.525 486.985 270.135 486.596L277.209 482.108C277.865 481.692 278.724 482.163 278.724 482.943Z" fill="#E0E0E0"></path><path d="M336.842 487.345C336.842 490.77 334.066 493.546 330.641 493.546C327.216 493.546 324.44 490.77 324.44 487.345C324.44 483.92 327.217 481.145 330.641 481.145C334.066 481.143 336.842 483.92 336.842 487.345Z" fill="#E0E0E0"></path><path d="M390.703 493.393H383.46C382.3 493.393 381.36 492.453 381.36 491.295V484.052C381.36 482.892 382.3 481.953 383.46 481.953H390.703C391.863 481.953 392.802 482.893 392.802 484.052V491.295C392.801 492.453 391.861 493.393 390.703 493.393Z" fill="#E0E0E0"></path><path d="M398.99 164.317C397.9 164.317 397.017 163.434 397.017 162.344C397.017 161.254 397.9 160.371 398.99 160.371C400.079 160.371 400.962 161.254 400.962 162.344C400.962 163.434 400.079 164.317 398.99 164.317Z" fill="#667E83"></path><path d="M398.99 170.02C397.9 170.02 397.017 169.136 397.017 168.047C397.017 166.958 397.9 166.074 398.99 166.074C400.079 166.074 400.962 166.958 400.962 168.047C400.961 169.137 400.079 170.02 398.99 170.02Z" fill="#667E83"></path><path d="M398.99 175.719C397.9 175.719 397.017 174.836 397.017 173.746C397.017 172.657 397.9 171.773 398.99 171.773C400.079 171.773 400.962 172.657 400.962 173.746C400.961 174.836 400.079 175.719 398.99 175.719Z" fill="#667E83"></path><path d="M180.966 505.731C180.348 503.029 179.03 499.828 176.271 499.552C174.635 499.388 173.061 500.438 172.167 501.819C171.273 503.199 170.802 504.849 170.71 506.49C170.102 517.339 170.919 529.875 173.701 541.468L183.805 542.331C184.746 529.797 183.764 517.984 180.966 505.731Z" fill="#455A64"></path><path d="M176.271 499.559C176.311 499.597 175.818 499.977 175.293 500.915C174.772 501.858 174.427 503.406 174.438 505.343C174.47 507.28 174.492 509.612 174.598 512.173C174.71 514.741 174.93 517.56 175.25 520.511C175.897 526.414 176.739 531.732 177.232 535.598C177.484 537.531 177.664 539.098 177.77 540.183C177.812 540.682 177.846 541.095 177.876 541.434C177.895 541.72 177.897 541.872 177.881 541.874C177.865 541.876 177.832 541.728 177.782 541.445C177.731 541.108 177.667 540.699 177.59 540.205C177.418 539.057 177.187 537.516 176.906 535.644C176.33 531.793 175.438 526.481 174.789 520.56C174.469 517.601 174.26 514.769 174.171 512.19C174.119 510.901 174.116 509.674 174.11 508.526C174.115 507.386 174.081 506.317 174.11 505.337C174.14 503.376 174.546 501.773 175.136 500.827C175.73 499.883 176.271 499.559 176.271 499.559Z" fill="#263238"></path><path d="M181.672 502.273C181.739 502.382 181.181 502.846 180.428 503.309C179.673 503.771 179.008 504.058 178.941 503.949C178.874 503.84 179.431 503.376 180.185 502.914C180.939 502.451 181.605 502.163 181.672 502.273Z" fill="#263238"></path><path d="M183.871 510.363C183.872 510.488 183.054 510.589 182.068 510.393C181.081 510.202 180.36 509.801 180.408 509.687C180.456 509.564 181.218 509.758 182.156 509.938C183.094 510.124 183.872 510.231 183.871 510.363Z" fill="#263238"></path><path d="M171.389 511.074C171.406 511.199 170.639 511.402 169.671 511.382C168.703 511.365 167.944 511.134 167.966 511.01C167.987 510.881 168.749 510.902 169.68 510.918C170.61 510.937 171.374 510.945 171.389 511.074Z" fill="#263238"></path><path d="M173.082 503.74C173.063 503.862 172.308 503.818 171.516 503.366C170.723 502.919 170.297 502.295 170.392 502.215C170.489 502.124 171.023 502.558 171.745 502.962C172.464 503.374 173.11 503.61 173.082 503.74Z" fill="#263238"></path><path d="M184.21 518.874C184.133 518.977 183.393 518.548 182.558 517.917C181.723 517.285 181.109 516.691 181.186 516.589C181.264 516.487 182.002 516.916 182.838 517.547C183.673 518.178 184.287 518.772 184.21 518.874Z" fill="#263238"></path><path d="M178.223 511.911C178.108 511.969 177.704 511.407 177.319 510.655C176.933 509.903 176.713 509.246 176.828 509.188C176.942 509.129 177.347 509.692 177.732 510.444C178.116 511.196 178.336 511.852 178.223 511.911Z" fill="#263238"></path><path d="M177.444 521.289C177.326 521.238 177.549 520.459 177.939 519.548C178.331 518.638 178.743 517.94 178.861 517.991C178.979 518.041 178.757 518.821 178.366 519.733C177.975 520.642 177.562 521.34 177.444 521.289Z" fill="#263238"></path><path d="M179.815 531.409C179.695 531.454 179.27 530.625 178.867 529.558C178.464 528.49 178.234 527.587 178.354 527.541C178.474 527.496 178.898 528.325 179.302 529.394C179.705 530.461 179.935 531.364 179.815 531.409Z" fill="#263238"></path><path d="M172.19 538.743C172.101 538.651 172.545 538.075 173.183 537.455C173.82 536.835 174.41 536.409 174.499 536.501C174.587 536.593 174.144 537.169 173.505 537.789C172.868 538.407 172.279 538.835 172.19 538.743Z" fill="#263238"></path><path d="M171.96 524.233C171.927 524.356 171.294 524.296 170.547 524.097C169.799 523.898 169.221 523.637 169.254 523.513C169.286 523.39 169.918 523.45 170.666 523.649C171.414 523.848 171.992 524.109 171.96 524.233Z" fill="#263238"></path><path d="M190.829 508.088C190.743 508.182 190.104 507.733 189.403 507.086C188.702 506.438 188.205 505.837 188.292 505.743C188.378 505.649 189.017 506.098 189.718 506.745C190.418 507.393 190.917 507.993 190.829 508.088Z" fill="#263238"></path><path d="M213.245 479.232C213.568 476.41 213.854 473.513 213.151 470.762C212.448 468.009 210.55 465.391 207.817 464.619C204.697 463.739 201.312 465.508 199.346 468.086C197.38 470.663 196.537 473.901 195.787 477.054C190.617 498.784 187.7 521.047 187.094 543.375L199.921 546.111C207.259 523.264 210.515 503.072 213.245 479.232Z" fill="#455A64"></path><path d="M206.024 464.391C206.031 464.394 206.006 464.463 205.951 464.593C205.883 464.747 205.799 464.935 205.695 465.164C205.445 465.697 205.105 466.423 204.674 467.342C204.458 467.817 204.181 468.328 203.945 468.917C203.708 469.509 203.452 470.149 203.177 470.835C202.899 471.525 202.604 472.259 202.291 473.036C202.021 473.833 201.737 474.675 201.44 475.558C200.208 479.079 199.087 483.386 198.028 488.202C196.982 493.025 196.14 498.389 195.376 504.033C193.908 515.337 193.075 525.634 192.254 533.064C191.852 536.78 191.511 539.786 191.22 541.856C191.08 542.861 190.97 543.658 190.888 544.24C190.848 544.488 190.816 544.692 190.79 544.859C190.765 544.998 190.748 545.069 190.741 545.068C190.733 545.067 190.734 544.994 190.743 544.853C190.756 544.685 190.774 544.481 190.796 544.229C190.855 543.643 190.937 542.845 191.042 541.835C191.276 539.759 191.568 536.749 191.929 533.03C192.665 525.596 193.447 515.294 194.917 503.971C195.681 498.317 196.539 492.943 197.612 488.11C198.697 483.284 199.854 478.971 201.131 475.449C201.441 474.568 201.736 473.727 202.016 472.93C202.341 472.155 202.649 471.421 202.939 470.734C203.227 470.051 203.496 469.415 203.744 468.825C203.992 468.239 204.283 467.733 204.512 467.262C204.977 466.359 205.344 465.644 205.613 465.12C205.732 464.897 205.83 464.716 205.91 464.568C205.978 464.448 206.018 464.387 206.024 464.391Z" fill="#263238"></path><path d="M207.225 464.48C207.225 464.48 207.961 465.352 208.617 467.273C209.301 469.181 209.604 472.159 209.204 475.739C208.353 482.874 207.012 492.692 205.387 503.524C203.758 514.356 202.111 524.137 200.842 531.2C200.208 534.733 199.672 537.587 199.288 539.557C199.096 540.51 198.944 541.266 198.832 541.823C198.78 542.057 198.738 542.25 198.702 542.41C198.67 542.541 198.65 542.609 198.642 542.608C198.634 542.606 198.639 542.537 198.656 542.402C198.679 542.24 198.706 542.045 198.741 541.807C198.832 541.245 198.955 540.485 199.112 539.526C199.451 537.505 199.93 534.653 200.521 531.146C201.708 524.07 203.302 514.286 204.932 503.456C206.555 492.632 207.948 482.812 208.881 475.706C209.319 472.154 209.069 469.229 208.448 467.33C207.851 465.418 207.165 464.511 207.225 464.48Z" fill="#263238"></path><path d="M213.83 498.654C213.778 498.771 212.699 498.41 211.419 497.846C210.139 497.281 209.144 496.73 209.196 496.612C209.247 496.495 210.327 496.857 211.607 497.421C212.887 497.985 213.882 498.538 213.83 498.654Z" fill="#263238"></path><path d="M216.327 485.565C216.371 485.685 215.284 486.192 213.899 486.698C212.514 487.203 211.356 487.515 211.312 487.395C211.269 487.275 212.355 486.767 213.74 486.262C215.125 485.757 216.282 485.445 216.327 485.565Z" fill="#263238"></path><path d="M216.282 474.726C216.264 474.853 215.396 474.836 214.344 474.688C213.291 474.54 212.452 474.317 212.47 474.191C212.488 474.064 213.356 474.081 214.408 474.229C215.46 474.377 216.299 474.599 216.282 474.726Z" fill="#263238"></path><path d="M203.401 466.868C203.288 466.929 202.771 466.181 202.246 465.2C201.721 464.217 201.387 463.373 201.5 463.312C201.614 463.251 202.13 463.999 202.656 464.981C203.18 465.963 203.513 466.808 203.401 466.868Z" fill="#263238"></path><path d="M198.521 473.077C198.51 473.205 197.679 473.232 196.667 473.139C195.656 473.046 194.845 472.866 194.856 472.738C194.868 472.61 195.698 472.583 196.71 472.676C197.723 472.77 198.534 472.949 198.521 473.077Z" fill="#263238"></path><path d="M194.425 485.892C194.369 486.007 193.519 485.708 192.526 485.224C191.534 484.738 190.774 484.253 190.831 484.138C190.887 484.023 191.737 484.322 192.729 484.807C193.722 485.291 194.481 485.777 194.425 485.892Z" fill="#263238"></path><path d="M193.309 496.832C193.325 496.959 192.57 497.168 191.619 497.298C190.668 497.428 189.884 497.43 189.866 497.303C189.849 497.177 190.605 496.968 191.556 496.839C192.507 496.707 193.291 496.705 193.309 496.832Z" fill="#263238"></path><path d="M190.545 514.655C190.559 514.781 189.758 514.972 188.757 515.079C187.755 515.186 186.932 515.17 186.918 515.042C186.905 514.915 187.706 514.724 188.707 514.617C189.708 514.511 190.531 514.527 190.545 514.655Z" fill="#263238"></path><path d="M188.851 524.488C188.903 524.605 188.217 525.021 187.318 525.417C186.42 525.814 185.65 526.041 185.598 525.923C185.546 525.806 186.232 525.389 187.131 524.993C188.03 524.598 188.799 524.371 188.851 524.488Z" fill="#263238"></path><path d="M196.14 536.297C196.024 536.352 195.511 535.527 194.992 534.452C194.474 533.376 194.148 532.46 194.262 532.405C194.378 532.35 194.891 533.175 195.41 534.251C195.929 535.325 196.256 536.241 196.14 536.297Z" fill="#263238"></path><path d="M199.797 517.792C199.88 517.89 199.192 518.612 198.26 519.405C197.326 520.198 196.504 520.761 196.421 520.664C196.338 520.566 197.027 519.844 197.96 519.051C198.889 518.258 199.714 517.695 199.797 517.792Z" fill="#263238"></path><path d="M199.976 507.954C199.876 508.035 199.321 507.509 198.739 506.783C198.155 506.055 197.763 505.401 197.863 505.321C197.963 505.241 198.516 505.765 199.1 506.492C199.683 507.219 200.076 507.874 199.976 507.954Z" fill="#263238"></path><path d="M202.466 495.545C202.555 495.637 201.974 496.345 201.167 497.126C200.361 497.908 199.634 498.466 199.546 498.374C199.457 498.282 200.037 497.574 200.845 496.793C201.651 496.011 202.378 495.453 202.466 495.545Z" fill="#263238"></path><path d="M204.014 486.528C203.917 486.613 203.221 485.981 202.458 485.116C201.695 484.252 201.155 483.483 201.25 483.398C201.346 483.313 202.043 483.945 202.807 484.81C203.569 485.673 204.11 486.443 204.014 486.528Z" fill="#263238"></path><path d="M206.658 474.365C206.764 474.438 206.335 475.235 205.7 476.145C205.066 477.055 204.467 477.733 204.362 477.66C204.256 477.587 204.685 476.789 205.32 475.88C205.954 474.969 206.552 474.291 206.658 474.365Z" fill="#263238"></path><path d="M210.802 463.227C210.91 463.296 210.524 464.098 209.939 465.016C209.355 465.936 208.794 466.625 208.685 466.556C208.577 466.487 208.962 465.687 209.547 464.767C210.132 463.848 210.694 463.158 210.802 463.227Z" fill="#263238"></path><path d="M214.22 468.657C214.268 468.776 213.723 469.103 213.005 469.386C212.287 469.669 211.667 469.801 211.62 469.682C211.573 469.563 212.117 469.236 212.835 468.953C213.553 468.67 214.174 468.538 214.22 468.657Z" fill="#263238"></path><path d="M211.413 509.547C211.38 509.664 210.216 509.42 208.923 508.753C207.626 508.091 206.749 507.288 206.825 507.192C206.905 507.085 207.88 507.699 209.134 508.339C210.387 508.986 211.454 509.42 211.413 509.547Z" fill="#263238"></path><path d="M209.253 518.095C209.269 518.222 208.47 518.423 207.47 518.543C206.469 518.663 205.646 518.658 205.631 518.531C205.615 518.404 206.413 518.203 207.414 518.083C208.414 517.963 209.237 517.968 209.253 518.095Z" fill="#263238"></path><path d="M206.298 532.809C206.216 532.9 205.274 532.152 204.448 530.937C203.616 529.726 203.261 528.577 203.375 528.533C203.499 528.48 204.029 529.51 204.832 530.675C205.626 531.845 206.392 532.713 206.298 532.809Z" fill="#263238"></path><path d="M184.992 538.124C184.915 538.021 185.484 537.471 186.261 536.898C187.038 536.323 187.729 535.941 187.805 536.044C187.881 536.148 187.313 536.697 186.536 537.27C185.76 537.844 185.068 538.227 184.992 538.124Z" fill="#263238"></path><path d="M158.681 490.391C157.264 484.721 153.035 481.659 148.123 481.375C143.641 482.161 141.902 486.574 141.37 491.094C140.838 495.613 142.241 500.112 143.627 504.446C148.077 518.363 152.526 532.281 156.976 546.198C161.181 545.739 165.387 545.279 169.592 544.82C165.599 526.174 163.306 508.891 158.681 490.391Z" fill="#455A64"></path><path d="M148.306 481.016C148.35 481.054 147.635 481.656 146.781 483.064C145.93 484.457 145.027 486.728 144.861 489.665C144.668 492.602 145.323 496.085 146.422 499.822C147.53 503.577 148.745 507.697 150.022 512.022C152.537 520.67 154.815 528.495 156.48 534.219C157.274 537.028 157.922 539.319 158.386 540.959C158.591 541.723 158.756 542.335 158.881 542.799C158.99 543.221 159.039 543.444 159.023 543.449C159.008 543.453 158.929 543.239 158.791 542.825C158.645 542.367 158.452 541.763 158.211 541.01C157.713 539.38 157.018 537.103 156.164 534.311C154.465 528.599 152.143 520.787 149.576 512.154C148.312 507.823 147.108 503.699 146.01 499.939C144.929 496.18 144.294 492.634 144.533 489.644C144.746 486.655 145.716 484.354 146.628 482.968C147.543 481.566 148.306 481.016 148.306 481.016Z" fill="#263238"></path><path d="M166.841 543.471C166.826 543.476 166.728 543.269 166.556 542.867C166.389 542.462 166.121 541.873 165.837 541.093C165.235 539.542 164.465 537.259 163.667 534.392C162.866 531.528 162.077 528.073 161.316 524.218C160.585 520.355 159.782 516.117 158.94 511.668C158.062 507.227 157.086 503.024 155.952 499.275C154.821 495.524 153.552 492.225 152.273 489.554C151.001 486.88 149.785 484.807 148.872 483.425C148.439 482.717 148.043 482.208 147.809 481.838C147.565 481.475 147.443 481.28 147.456 481.27C147.468 481.26 147.616 481.436 147.884 481.783C148.143 482.135 148.563 482.63 149.021 483.324C149.984 484.681 151.25 486.74 152.569 489.411C153.893 492.079 155.201 495.388 156.361 499.15C157.523 502.912 158.516 507.128 159.395 511.578C160.225 516.03 161.015 520.271 161.735 524.137C162.473 527.989 163.225 531.441 163.983 534.308C164.738 537.175 165.457 539.467 166.005 541.032C166.264 541.821 166.504 542.419 166.641 542.834C166.787 543.245 166.855 543.464 166.841 543.471Z" fill="#263238"></path><path d="M143.852 502.37C143.882 502.495 143.196 502.768 142.319 502.981C141.442 503.194 140.706 503.265 140.676 503.14C140.646 503.016 141.332 502.743 142.209 502.53C143.087 502.316 143.821 502.245 143.852 502.37Z" fill="#263238"></path><path d="M142.515 493.754C142.509 493.885 141.555 493.937 140.387 493.984C139.22 494.029 138.265 494.051 138.248 493.922C138.231 493.797 139.177 493.566 140.369 493.521C141.561 493.472 142.522 493.629 142.515 493.754Z" fill="#263238"></path><path d="M143.937 485.895C143.854 485.993 143.169 485.547 142.406 484.901C141.644 484.254 141.092 483.65 141.176 483.553C141.259 483.455 141.944 483.899 142.706 484.547C143.468 485.194 144.02 485.797 143.937 485.895Z" fill="#263238"></path><path d="M147.785 478.614C147.913 478.644 147.878 479.257 147.859 479.998C147.836 480.74 147.835 481.353 147.705 481.376C147.582 481.398 147.371 480.778 147.396 479.985C147.416 479.192 147.664 478.584 147.785 478.614Z" fill="#263238"></path><path d="M155.65 482.046C155.756 482.12 155.447 482.741 154.962 483.434C154.477 484.127 153.998 484.63 153.893 484.556C153.788 484.483 154.096 483.861 154.581 483.168C155.067 482.474 155.546 481.972 155.65 482.046Z" fill="#263238"></path><path d="M160.753 490.907C160.802 491.026 160.148 491.404 159.295 491.753C158.44 492.101 157.709 492.287 157.661 492.168C157.613 492.049 158.266 491.671 159.12 491.323C159.973 490.974 160.705 490.788 160.753 490.907Z" fill="#263238"></path><path d="M163.85 500.029C163.902 500.141 163.037 500.635 161.851 500.901C160.665 501.173 159.671 501.1 159.669 500.976C159.663 500.844 160.61 500.709 161.747 500.449C162.886 500.195 163.798 499.907 163.85 500.029Z" fill="#263238"></path><path d="M149.635 497.437C149.512 497.398 149.601 496.769 149.832 496.029C150.064 495.29 150.351 494.721 150.473 494.76C150.596 494.798 150.507 495.428 150.276 496.168C150.043 496.907 149.757 497.475 149.635 497.437Z" fill="#263238"></path><path d="M151.617 508.884C151.499 508.833 151.755 507.983 152.188 506.987C152.62 505.991 153.067 505.224 153.184 505.276C153.302 505.326 153.046 506.175 152.613 507.173C152.181 508.169 151.735 508.935 151.617 508.884Z" fill="#263238"></path><path d="M146.719 512.029C146.669 512.149 145.87 511.932 144.902 511.631C143.935 511.326 143.153 511.05 143.181 510.923C143.208 510.8 144.052 510.877 145.041 511.187C146.03 511.495 146.768 511.912 146.719 512.029Z" fill="#263238"></path><path d="M149.543 521.362C149.617 521.467 149.077 521.98 148.335 522.509C147.594 523.037 146.933 523.381 146.859 523.278C146.785 523.173 147.325 522.66 148.066 522.131C148.807 521.602 149.468 521.259 149.543 521.362Z" fill="#263238"></path><path d="M151.808 530.672C151.838 530.797 151.17 531.066 150.314 531.274C149.46 531.482 148.742 531.549 148.712 531.424C148.682 531.3 149.35 531.03 150.205 530.822C151.06 530.615 151.777 530.547 151.808 530.672Z" fill="#263238"></path><path d="M164.1 507.801C164.164 507.909 163.593 508.364 162.76 508.677C161.928 508.992 161.198 509.026 161.176 508.903C161.151 508.775 161.806 508.543 162.596 508.243C163.388 507.946 164.034 507.687 164.1 507.801Z" fill="#263238"></path><path d="M165.856 522.289C165.801 522.404 165.12 522.199 164.334 521.829C163.548 521.46 162.956 521.066 163.01 520.95C163.065 520.835 163.746 521.04 164.532 521.409C165.317 521.779 165.91 522.172 165.856 522.289Z" fill="#263238"></path><path d="M168.956 532.652C168.909 532.771 168.009 532.531 166.947 532.114C165.885 531.697 165.061 531.263 165.108 531.144C165.155 531.025 166.053 531.265 167.117 531.682C168.179 532.098 169.002 532.532 168.956 532.652Z" fill="#263238"></path><path d="M152.303 540.769C152.241 540.652 153.068 540.096 154.024 539.342C154.984 538.592 155.719 537.919 155.818 538.008C155.912 538.089 155.307 538.928 154.311 539.707C153.319 540.49 152.36 540.879 152.303 540.769Z" fill="#263238"></path><path d="M160.5 535.502C160.369 535.518 160.19 534.822 159.874 534.012C159.564 533.2 159.228 532.565 159.336 532.487C159.433 532.411 159.971 532.969 160.307 533.845C160.647 534.72 160.624 535.493 160.5 535.502Z" fill="#263238"></path><path d="M158.327 523.042C158.252 523.146 157.723 522.893 157.144 522.479C156.566 522.064 156.158 521.642 156.233 521.539C156.307 521.435 156.837 521.687 157.415 522.102C157.993 522.517 158.402 522.938 158.327 523.042Z" fill="#263238"></path><path d="M212.275 540.527H146.249V552.23H212.275V540.527Z" fill="#64A1A7"></path><path d="M151.179 549.91L159.209 584.881H198.56L207.345 549.91H151.179Z" fill="#64A1A7"></path><path d="M212.239 552.24C212.239 552.368 197.346 552.473 178.979 552.473C160.605 552.473 145.715 552.369 145.715 552.24C145.715 552.112 160.605 552.008 178.979 552.008C197.345 552.009 212.239 552.112 212.239 552.24Z" fill="#263238"></path><path d="M480.797 489.797C480.797 492.049 515.794 585.227 515.794 585.227H529.874L494.971 489.797H480.797Z" fill="#656E72"></path><path d="M444.721 485.301H430.686V585.227H444.721V485.301Z" fill="#656E72"></path><path d="M522.308 519.934H477.627V529.881H522.308V519.934Z" fill="#656E72"></path><path d="M508.378 483.535H430.686V493.483H508.378V483.535Z" fill="#656E72"></path><path d="M536.255 556.328H490.012V566.276H536.255V556.328Z" fill="#656E72"></path><path d="M508.83 493.8C508.83 493.961 491.303 494.092 469.688 494.092C448.064 494.092 430.541 493.96 430.541 493.8C430.541 493.638 448.064 493.508 469.688 493.508C491.303 493.508 508.83 493.638 508.83 493.8Z" fill="#263238"></path><path d="M444.999 585.231C444.837 585.231 444.707 564.763 444.707 539.52C444.707 514.268 444.838 493.805 444.999 493.805C445.16 493.805 445.291 514.268 445.291 539.52C445.291 564.762 445.16 585.231 444.999 585.231Z" fill="#263238"></path><path d="M515.794 585.225C515.643 585.282 507.928 564.755 498.567 539.384C489.202 514.004 481.734 493.392 481.886 493.336C482.038 493.28 489.75 513.802 499.116 539.182C508.477 564.553 515.946 585.17 515.794 585.225Z" fill="#263238"></path><path d="M530.092 585.225C529.941 585.282 522.226 564.755 512.865 539.384C503.5 514.004 496.032 493.392 496.184 493.336C496.336 493.28 504.048 513.802 513.414 539.182C522.774 564.553 530.243 585.17 530.092 585.225Z" fill="#263238"></path><path d="M574.099 278.18C573.049 273.665 570.509 269.662 568.011 265.758C563.99 268.244 559.64 270.194 555.11 271.544L556.436 294.922C561.638 295.081 567.42 294.799 571.131 291.15C574.437 287.899 575.149 282.695 574.099 278.18Z" fill="#FFBE9D"></path><path d="M557.541 237.008L546.174 262.793C550.352 266.895 553.659 271.88 555.813 277.324C562.611 273.989 568.84 269.5 574.152 264.105C568.575 256.351 562.113 240.637 557.541 237.008Z" fill="#0F4A68"></path><path d="M541.779 179.915L537.195 224.503C536.416 232.086 533.721 243.065 521.789 241.286C511.552 238.962 509.934 228.831 510.67 221.755C511.018 218.399 511.302 215.6 511.315 215.253C511.315 215.253 500.074 213.018 500.41 201.699C500.571 196.23 501.823 184.99 503.072 174.836C504.414 163.93 513.919 155.89 524.897 156.351L525.988 156.397C537.729 157.578 543.285 168.211 541.779 179.915Z" fill="#FFBE9D"></path><path d="M511.302 215.103C511.302 215.103 518.427 215.985 526.227 211.531C526.227 211.531 522.399 219.526 511.153 218.034L511.302 215.103Z" fill="#EB996E"></path><path d="M504.528 180.549C504.712 180.791 506.322 180.497 508.323 181.126C510.328 181.732 511.597 182.914 511.862 182.809C511.99 182.767 511.839 182.386 511.29 181.859C510.75 181.337 509.763 180.686 508.515 180.301C507.267 179.917 506.129 179.912 505.436 180.055C504.729 180.194 504.435 180.438 504.528 180.549Z" fill="#263238"></path><path d="M521.881 183.128C522.152 183.261 523.46 182.3 525.523 181.976C527.579 181.633 529.232 182.114 529.423 181.907C529.518 181.813 529.216 181.545 528.494 181.323C527.782 181.1 526.614 180.96 525.331 181.169C524.048 181.378 523.03 181.871 522.474 182.298C521.905 182.73 521.75 183.071 521.881 183.128Z" fill="#263238"></path><path d="M521.952 186.844C521.902 187.502 522.416 188.087 523.102 188.153C523.787 188.22 524.384 187.74 524.435 187.082C524.485 186.424 523.971 185.838 523.286 185.772C522.6 185.705 522.003 186.186 521.952 186.844Z" fill="#263238"></path><path d="M505.341 185.516C505.29 186.174 505.805 186.759 506.491 186.825C507.176 186.891 507.773 186.412 507.824 185.754C507.874 185.096 507.36 184.51 506.675 184.443C505.989 184.378 505.391 184.858 505.341 185.516Z" fill="#263238"></path><path d="M515.496 194.155C515.508 194.056 514.436 193.824 512.694 193.527C512.252 193.463 511.837 193.358 511.774 193.051C511.683 192.726 511.888 192.255 512.125 191.747C512.588 190.691 513.072 189.583 513.58 188.423C515.606 183.686 517.092 179.784 516.9 179.704C516.708 179.625 514.911 183.399 512.886 188.135C512.398 189.303 511.931 190.417 511.486 191.482C511.298 191.98 510.984 192.54 511.183 193.215C511.289 193.552 511.604 193.806 511.886 193.894C512.167 193.993 512.417 194.009 512.636 194.03C514.392 194.199 515.485 194.254 515.496 194.155Z" fill="#263238"></path><path d="M523.318 174.659C523.452 175.097 524.991 174.956 526.78 175.256C528.576 175.519 530.004 176.124 530.259 175.748C530.374 175.567 530.138 175.152 529.568 174.709C529.005 174.268 528.093 173.833 527.018 173.664C525.944 173.496 524.947 173.632 524.281 173.88C523.609 174.126 523.262 174.451 523.318 174.659Z" fill="#263238"></path><path d="M505.082 176.069C505.24 176.432 506.748 176.224 508.53 176.373C510.316 176.491 511.76 176.921 511.989 176.588C512.09 176.428 511.833 176.09 511.245 175.749C510.663 175.409 509.738 175.093 508.668 175.011C507.599 174.933 506.625 175.106 505.982 175.354C505.336 175.602 505.013 175.896 505.082 176.069Z" fill="#263238"></path><path d="M540.502 188.251C540.699 188.176 548.373 186.278 547.8 194.003C547.228 201.727 539.592 199.559 539.595 199.336C539.598 199.114 540.502 188.251 540.502 188.251Z" fill="#FFBE9D"></path><path d="M542.174 196.565C542.209 196.543 542.302 196.67 542.521 196.791C542.735 196.909 543.111 197.008 543.524 196.886C544.362 196.647 545.146 195.403 545.286 194.013C545.358 193.312 545.26 192.632 545.053 192.059C544.858 191.476 544.523 191.055 544.117 190.951C543.715 190.826 543.406 191.051 543.296 191.261C543.176 191.47 543.214 191.627 543.173 191.637C543.149 191.655 543.017 191.495 543.102 191.181C543.145 191.031 543.249 190.854 543.441 190.72C543.638 190.583 543.916 190.525 544.2 190.578C544.793 190.663 545.288 191.251 545.518 191.879C545.779 192.513 545.905 193.279 545.825 194.067C545.66 195.62 544.756 197.017 543.615 197.257C543.062 197.358 542.62 197.162 542.4 196.962C542.174 196.753 542.145 196.577 542.174 196.565Z" fill="#EB996E"></path><path d="M516.694 199.683C516.632 199.478 518.191 199.202 519.412 197.911C520.022 197.276 520.414 196.553 520.708 196.025C520.997 195.493 521.207 195.163 521.287 195.198C521.363 195.232 521.3 195.607 521.107 196.199C520.909 196.784 520.549 197.613 519.858 198.334C519.175 199.064 518.329 199.449 517.721 199.611C517.106 199.783 516.707 199.751 516.694 199.683Z" fill="#263238"></path><path d="M494.289 166.717C493.598 166.929 493.001 167.521 492.857 168.244C492.644 169.302 493.319 170.43 494.308 170.864C495.297 171.297 496.503 171.079 497.368 170.436C496.972 170.662 496.614 170.95 496.305 171.284C494.744 172.967 496.998 175.564 498.882 174.253C498.893 174.245 498.904 174.237 498.916 174.229C499.196 174.863 499.39 175.495 499.596 176.127L499.595 176.141L499.641 176.261C499.771 176.656 499.908 177.05 500.084 177.444L500.088 177.419L502.16 182.781C502.69 179.644 502.939 175.152 503.469 172.016C508.364 172.367 512.996 170.911 516.68 167.669C518.624 165.959 520.255 163.723 522.692 162.848C525.834 161.721 529.253 163.2 532.26 164.65L532.141 164.515C533.684 165.457 535.044 166.698 536.122 168.15C534.7 174.281 534.614 180.719 535.88 186.885C536.071 187.814 536.661 189.75 537.5 190.191C539.149 191.057 539.816 189.353 540.964 188.539C541.808 187.94 542.953 187.982 544.193 188.128C545.143 186.295 546.267 183.15 547.224 180.395L548.609 177.795L548.604 174.697C547.315 171.801 550.873 170.795 550.348 167.669C549.821 164.543 548.497 161.215 545.653 159.814L545.582 159.836C543.042 158.457 539.76 158.063 537.36 159.659C537.28 155.601 534.142 152.034 530.36 150.561C526.578 149.087 520.253 148.976 516.339 150.051C513.312 150.881 510.242 152.943 506.44 156.054C504.838 157.364 502.786 162.178 501.42 163.732L494.289 166.717Z" fill="#263238"></path><path d="M535.425 146.807C535.967 146.966 548.893 151.967 550.764 162.423C552.635 172.881 551.201 175.795 551.201 175.795C551.201 175.795 551.907 176.381 552.419 177.202C552.879 177.937 551.602 180.957 549.908 180.344C537.7 172.628 522.325 169.757 505.019 167.742L491.853 165.625C488.096 165.507 486.945 164.335 488.641 163.638C489.94 163.105 501.044 160.448 501.044 160.448L503.326 159.251L509.892 152.505C509.892 152.505 509.374 151.354 510.836 150.677C512.298 150 524.74 143.674 535.425 146.807Z" fill="#0F4A68"></path><path d="M503.325 159.254C503.325 159.254 503.501 159.289 503.839 159.334C504.241 159.384 504.729 159.446 505.316 159.519C506.602 159.654 508.45 159.943 510.726 160.331C515.266 161.159 521.496 162.654 528.098 165.135C534.716 167.571 540.474 170.359 544.6 172.436C546.667 173.47 548.322 174.342 549.47 174.936C549.995 175.208 550.432 175.434 550.793 175.62C551.096 175.774 551.261 175.845 551.261 175.845C551.261 175.845 551.11 175.747 550.814 175.58C550.459 175.383 550.029 175.145 549.511 174.859C548.376 174.241 546.731 173.347 544.673 172.294C540.563 170.181 534.808 167.366 528.176 164.925C521.561 162.44 515.31 160.965 510.755 160.175C506.187 159.411 503.325 159.254 503.325 159.254Z" fill="#263238"></path><g opacity="0.3"><path d="M546.771 154.483C546.771 154.483 532.702 150.02 525.789 152.169C526.058 152.08 526.326 151.991 526.594 151.903C524.429 152.496 522.265 153.09 520.1 153.683C519.002 153.983 517.729 154.255 516.811 153.584C516.811 153.584 520.5 151.139 526.831 149.993C533.162 148.845 542.867 149.384 546.771 154.483Z" fill="black"></path></g><path d="M546.968 154.59C546.968 154.59 546.593 154.176 545.802 153.553C545.014 152.932 543.812 152.085 542.176 151.327C540.55 150.556 538.49 149.878 536.131 149.53C533.785 149.18 531.097 149.117 528.435 149.887C527.106 150.253 525.861 150.76 524.667 151.252C523.481 151.765 522.316 152.199 521.241 152.725C520.175 153.251 519.187 153.795 518.181 154.085C517.18 154.421 516.199 154.348 515.313 154.234C511.764 153.76 509.697 152.705 509.891 152.504C509.891 152.495 509.91 152.662 510.132 152.825C510.349 152.98 510.695 153.174 511.166 153.352C512.105 153.715 513.509 154.13 515.293 154.391C516.172 154.516 517.21 154.598 518.234 154.263C519.266 153.974 520.271 153.427 521.332 152.911C522.392 152.397 523.566 151.964 524.751 151.455C525.945 150.967 527.182 150.464 528.496 150.103C531.121 149.345 533.77 149.399 536.101 149.735C538.441 150.069 540.487 150.727 542.11 151.473C543.742 152.208 544.948 153.026 545.749 153.624C546.15 153.923 546.452 154.169 546.651 154.342C546.853 154.511 546.968 154.59 546.968 154.59Z" fill="#263238"></path><g opacity="0.3"><path d="M551.404 166.775C548.822 166.375 546.961 165.415 544.479 164.475C541.833 163.474 539.195 162.6 536.602 161.474C534.633 160.618 532.281 159.766 531.162 158.086C530.81 159.129 530.987 160.148 531.662 161.017C532.337 161.886 534.75 163.16 535.758 163.602C541.504 166.117 545.489 167.825 551.638 169.175C551.68 168.526 551.404 166.775 551.404 166.775Z" fill="black"></path></g><path d="M550.508 161.271C552.04 162.223 552.974 162.85 552.815 164.251C552.683 165.418 552.238 166.802 551.064 166.836C550.706 166.846 550.36 166.724 550.023 166.602C544.255 164.526 538.485 162.45 532.717 160.374C532.132 160.162 531.499 159.913 531.19 159.374C530.715 158.543 531.309 157.429 532.17 157.013C533.031 156.597 534.042 156.687 534.991 156.809C540.383 157.505 545.493 159.17 550.508 161.271Z" fill="#0F4A68"></path><path d="M531.426 159.669C531.456 159.653 531.143 159.426 531.061 158.82C530.98 158.25 531.203 157.25 532.125 156.677C533.063 156.152 534.432 156.131 535.83 156.413C537.25 156.696 538.81 157.029 540.431 157.433C543.68 158.229 546.544 159.231 548.538 160.14C549.539 160.583 550.325 160.994 550.868 161.278C551.09 161.398 551.294 161.508 551.488 161.613C551.632 161.688 551.71 161.724 551.713 161.718C551.718 161.711 551.648 161.663 551.511 161.575C551.322 161.459 551.125 161.336 550.909 161.202C550.378 160.894 549.6 160.46 548.603 159.996C546.618 159.047 543.744 158.016 540.485 157.216C538.858 156.811 537.295 156.484 535.868 156.211C534.443 155.938 533.037 155.963 532.042 156.542C531.062 157.18 530.864 158.239 530.973 158.833C531.026 159.144 531.15 159.362 531.247 159.493C531.356 159.619 531.422 159.673 531.426 159.669Z" fill="#263238"></path><path d="M507.83 154.617L519.087 156.04L517.672 159.062L505.508 157.003L507.83 154.617Z" fill="white"></path><path d="M523.334 167.08C523.351 167.021 518.453 165.568 512.396 163.836C506.336 162.104 501.413 160.747 501.395 160.807C501.378 160.866 506.275 162.318 512.334 164.051C518.392 165.783 523.317 167.14 523.334 167.08Z" fill="#263238"></path><path d="M602.82 320.374L608.558 305.465L623.157 298.981L634.441 307.762L637.644 304.559C635.145 293.846 627.557 284.521 616.518 280.27C603.537 275.275 589.397 278.692 580.081 287.842L428.824 230.014C428.048 216.979 419.849 204.962 406.868 199.966C395.829 195.717 383.946 197.55 374.909 203.821L371.705 207.025L389.398 209.397L395.881 223.996L390.143 238.905L375.545 245.389L360.155 240.713L357.852 243.016C361.079 252.175 372.409 260.338 382.183 264.1C395.145 269.089 409.263 265.688 418.579 256.568L569.881 314.415C570.677 327.427 578.873 339.415 591.833 344.404C602.873 348.653 616.139 347.439 625.176 341.168L609.305 334.973L602.82 320.374Z" fill="#E0E0E0"></path><g opacity="0.3"><path d="M602.82 320.374L608.558 305.465L623.157 298.981L634.441 307.762L637.644 304.559C635.145 293.846 627.557 284.521 616.518 280.27C603.537 275.275 589.397 278.692 580.081 287.842L428.824 230.014C428.048 216.979 419.849 204.962 406.868 199.966C395.829 195.717 383.946 197.55 374.909 203.821L371.705 207.025L389.398 209.397L395.881 223.996L390.143 238.905L375.545 245.389L360.155 240.713L357.852 243.016C361.016 252.34 372.275 260.286 382.183 264.1C395.145 269.089 409.263 265.688 418.579 256.568L569.881 314.415C570.677 327.427 578.873 339.415 591.833 344.404C602.873 348.653 616.139 347.439 625.176 341.168L609.305 334.973L602.82 320.374Z" fill="black"></path></g><path d="M599.616 323.577L605.354 308.668L619.953 302.184L634.441 307.761C631.941 297.048 624.354 287.721 613.314 283.472C600.334 278.477 586.193 281.894 576.877 291.044L425.621 233.217C424.845 220.182 416.645 208.165 403.665 203.169C392.626 198.92 380.743 200.753 371.706 207.024L386.194 212.6L392.679 227.199L386.941 242.108L372.342 248.592L357.853 243.015C360.353 253.728 367.94 263.054 378.98 267.303C391.942 272.292 406.06 268.892 415.376 259.771L566.678 317.618C567.474 330.63 575.67 342.618 588.631 347.607C599.67 351.856 611.553 350.023 620.59 343.752L606.102 338.176L599.616 323.577Z" fill="#E0E0E0"></path><path d="M424.592 239.902C424.632 239.905 424.647 240.233 424.639 240.828C424.639 241.423 424.569 242.283 424.421 243.336C424.13 245.444 423.394 248.331 421.982 251.273C420.56 254.212 418.763 256.589 417.296 258.129C416.564 258.903 415.936 259.493 415.47 259.864C415.01 260.241 414.745 260.435 414.718 260.404C414.652 260.329 415.622 259.449 416.987 257.854C418.355 256.264 420.062 253.9 421.455 251.02C422.839 248.135 423.624 245.328 424.015 243.268C424.408 241.205 424.492 239.897 424.592 239.902Z" fill="#263238"></path><path d="M599.616 323.582C599.616 323.582 599.77 323.895 600.052 324.515C600.335 325.141 600.753 326.064 601.304 327.284C602.405 329.737 604.035 333.375 606.175 338.147L606.129 338.103C610.105 339.623 614.986 341.491 620.629 343.649L620.834 343.728L620.653 343.851C617.045 346.329 612.571 348.445 607.373 349.446C602.197 350.443 596.298 350.303 590.456 348.418C584.622 346.58 578.857 342.971 574.421 337.639C570.001 332.326 566.983 325.295 566.477 317.634L566.604 317.808C526.097 302.343 474.049 282.473 415.275 260.036L415.568 259.975C411.37 264.062 406.075 267.12 400.284 268.682C394.504 270.272 388.226 270.3 382.321 268.675C376.41 267.096 370.87 263.896 366.512 259.431C362.157 254.965 359.031 249.252 357.569 243.085L357.442 242.551L357.956 242.748C362.515 244.502 367.464 246.408 372.444 248.324L372.222 248.329C376.829 246.282 381.812 244.07 386.821 241.845L386.667 242.006C388.484 237.287 390.44 232.204 392.405 227.097L392.411 227.321L392.404 227.306C390.233 222.421 388.074 217.557 385.926 212.722L386.088 212.876C381.23 211.006 376.399 209.147 371.6 207.298L371.085 207.1L371.538 206.786C376.746 203.198 382.884 201.057 389.101 200.654C395.322 200.259 401.577 201.59 407.027 204.377C409.758 205.758 412.296 207.495 414.553 209.526C416.8 211.569 418.762 213.899 420.388 216.425C423.648 221.478 425.534 227.321 425.9 233.202L425.719 232.956C483.747 255.17 535.558 275.005 576.951 290.85L576.728 290.896C582.091 285.67 588.85 282.486 595.559 281.426C602.291 280.332 608.926 281.393 614.531 283.797C620.163 286.195 624.774 289.951 628.091 294.204C631.428 298.465 633.499 303.19 634.572 307.731L634.632 307.983L634.389 307.89C628.588 305.647 624.018 303.879 619.909 302.291L619.996 302.289C613.786 305.031 609.163 307.073 605.384 308.743L605.425 308.699C603.442 313.8 601.997 317.517 601.045 319.966C600.566 321.183 600.213 322.084 599.976 322.689C599.742 323.29 599.616 323.582 599.616 323.582C599.616 323.582 599.715 323.29 599.939 322.692C600.167 322.086 600.508 321.184 600.967 319.964C601.905 317.503 603.328 313.77 605.28 308.645L605.292 308.615L605.322 308.601C609.095 306.916 613.709 304.855 619.907 302.086L619.95 302.067L619.994 302.084C624.107 303.659 628.683 305.413 634.49 307.638L634.307 307.797C633.228 303.295 631.162 298.616 627.845 294.402C624.548 290.194 619.975 286.487 614.394 284.125C608.84 281.757 602.277 280.719 595.622 281.813C588.989 282.872 582.315 286.031 577.025 291.201L576.928 291.296L576.801 291.248C535.395 275.438 483.568 255.649 425.519 233.486L425.35 233.421L425.339 233.239C424.976 227.455 423.118 221.706 419.909 216.738C418.309 214.253 416.379 211.962 414.169 209.954C411.949 207.959 409.454 206.251 406.767 204.893C401.405 202.153 395.254 200.846 389.139 201.236C383.025 201.633 376.99 203.739 371.869 207.268L371.808 206.757C376.607 208.604 381.438 210.464 386.295 212.334L386.409 212.377L386.458 212.489C388.606 217.324 390.766 222.187 392.936 227.073L392.943 227.087L392.992 227.199L392.949 227.312C390.983 232.419 389.027 237.5 387.21 242.22L387.167 242.333L387.056 242.382C382.046 244.607 377.064 246.819 372.457 248.866L372.347 248.915L372.234 248.872C367.255 246.955 362.306 245.049 357.747 243.294L358.133 242.957C359.569 249.021 362.643 254.64 366.923 259.034C371.207 263.424 376.654 266.574 382.468 268.129C388.275 269.73 394.448 269.705 400.136 268.142C405.834 266.607 411.045 263.601 415.179 259.582L415.307 259.457L415.473 259.521C474.225 282.016 526.254 301.937 566.746 317.441L566.866 317.487L566.874 317.615C567.362 325.187 570.333 332.148 574.697 337.415C579.076 342.699 584.776 346.285 590.552 348.119C596.338 350.001 602.183 350.154 607.322 349.179C612.481 348.201 616.929 346.116 620.521 343.667L620.546 343.869C614.911 341.687 610.039 339.8 606.07 338.263L606.037 338.25L606.024 338.219C603.914 333.422 602.305 329.764 601.22 327.299C600.687 326.076 600.282 325.149 600.008 324.522C599.741 323.896 599.616 323.582 599.616 323.582Z" fill="#263238"></path><path d="M497.936 231.355L487.186 317.248C486.663 321.425 489.337 325.336 493.417 326.367L548.879 335.974C552.174 336.544 555.198 334.032 555.238 330.688C555.376 318.857 555.861 293.266 557.541 277.319C559.392 259.739 564.101 245.385 557.541 237.002C550.981 228.621 539.536 222.771 539.536 222.771L538.327 217.547C538.327 217.547 514.389 217.582 510.261 221.16L507.721 225.562L497.936 231.355Z" fill="#346882"></path><path d="M559.897 251.121C559.918 251.122 559.921 251.313 559.909 251.675C559.886 252.104 559.859 252.625 559.827 253.255C559.722 254.716 559.583 256.676 559.415 259.058C559.041 263.956 558.485 270.719 557.833 278.186C557.182 285.656 556.561 292.414 556.082 297.303C555.837 299.678 555.635 301.631 555.484 303.088C555.408 303.713 555.344 304.232 555.292 304.658C555.242 305.016 555.206 305.203 555.186 305.201C555.165 305.199 555.162 305.008 555.176 304.645C555.198 304.216 555.225 303.694 555.259 303.064C555.362 301.603 555.501 299.643 555.671 297.26C556.045 292.362 556.601 285.599 557.252 278.131C557.902 270.666 558.524 263.911 559.004 259.022C559.248 256.647 559.45 254.692 559.601 253.234C559.677 252.608 559.741 252.09 559.793 251.663C559.841 251.308 559.877 251.12 559.897 251.121Z" fill="#263238"></path><path d="M539.536 222.769C539.536 222.81 539.09 222.853 538.284 222.895C537.352 222.941 536.212 222.997 534.872 223.064C531.992 223.205 528.018 223.456 523.637 223.86C519.256 224.261 515.297 224.724 512.432 225.056C511.097 225.206 509.962 225.333 509.035 225.437C508.231 225.519 507.784 225.545 507.778 225.505C507.773 225.464 508.208 225.362 509.002 225.212C509.796 225.06 510.949 224.866 512.377 224.646C515.232 224.209 519.19 223.679 523.584 223.278C527.976 222.873 531.969 222.686 534.858 222.652C536.303 222.631 537.474 222.64 538.282 222.669C539.089 222.695 539.536 222.729 539.536 222.769Z" fill="#263238"></path><path d="M451.646 448.803L461.071 469.817C461.071 469.817 436.261 479.529 436.063 484.145L484.342 483.272L484.282 479.239L473.634 444.574L451.646 448.803Z" fill="#0F4A68"></path><path d="M475.218 466.02C476.157 466.258 476.821 467.297 476.621 468.245C476.422 469.193 475.371 469.879 474.428 469.657C473.485 469.435 472.65 468.213 472.954 467.292C473.258 466.372 474.536 465.635 475.399 466.077" fill="#E0E0E0"></path><path d="M484.342 483.232L484.282 479.199L437.926 481.621C437.926 481.621 435.793 482.595 436.064 484.105L484.342 483.232Z" fill="#263238"></path><path d="M460.284 469.545C460.296 469.781 461.476 469.866 462.649 470.603C463.843 471.309 464.46 472.319 464.674 472.222C464.891 472.172 464.514 470.769 463.076 469.902C461.649 469.023 460.229 469.329 460.284 469.545Z" fill="#263238"></path><path d="M455.259 471.733C455.208 471.962 456.237 472.345 457.056 473.328C457.903 474.287 458.125 475.36 458.359 475.345C458.582 475.379 458.72 473.995 457.679 472.793C456.648 471.582 455.26 471.509 455.259 471.733Z" fill="#263238"></path><path d="M452.493 477.84C452.708 477.886 453.015 476.703 452.386 475.423C451.767 474.138 450.646 473.649 450.549 473.847C450.42 474.044 451.148 474.723 451.649 475.782C452.173 476.829 452.258 477.821 452.493 477.84Z" fill="#263238"></path><path d="M458.526 464.07C458.628 464.283 459.704 463.938 461.038 464.005C462.373 464.044 463.419 464.473 463.538 464.267C463.671 464.095 462.643 463.24 461.071 463.184C459.499 463.116 458.406 463.887 458.526 464.07Z" fill="#263238"></path><path d="M534.978 516.727L536.053 556.8L514.981 556.741L513.851 517.64L534.978 516.727Z" fill="#0F4A68"></path><path d="M525.59 554.776C525.413 554.779 525.148 546.234 524.998 535.694C524.848 525.151 524.868 516.605 525.044 516.602C525.22 516.599 525.484 525.141 525.636 535.685C525.786 546.225 525.766 554.772 525.59 554.776Z" fill="#263238"></path><path d="M514.618 544.248C514.586 544.224 514.759 543.91 515.137 543.382C515.516 542.857 516.12 542.131 516.969 541.332C517.819 540.537 518.926 539.67 520.318 538.973C521.696 538.265 523.385 537.749 525.201 537.725C528.843 537.649 531.946 539.362 533.494 541.106C534.297 541.965 534.799 542.779 535.088 543.361C535.372 543.947 535.48 544.291 535.445 544.306C535.331 544.373 534.792 543.005 533.174 541.423C531.607 539.834 528.665 538.293 525.208 538.362C521.763 538.42 518.964 540.225 517.27 541.669C515.54 543.146 514.708 544.32 514.618 544.248Z" fill="#263238"></path><path d="M535.976 556.842L514.999 556.745L514.844 552.008L535.997 552.106L535.976 556.842Z" fill="#263238"></path><path d="M538.217 333.891L492.126 325.93L491.945 330.878C480.818 339.796 451.164 365.286 433.255 382.745C433.255 382.745 426.61 391.548 429.245 399.668L454.085 463.381L482.595 456.806L465.198 402.92L518.703 377.934C529.107 374.085 538.478 360.954 540.692 353.427C542.589 346.991 538.499 342.134 538.217 333.891Z" fill="#263238"></path><path d="M501.525 384.458L512.498 531.622L539.735 532.313C539.735 532.313 544.417 488.85 543.838 461.089C543.26 433.329 543.22 365.289 543.22 365.289L501.525 384.458Z" fill="#263238"></path><path d="M538.217 333.891L552.619 336.494C552.619 336.494 553.14 371.8 552.125 375.349C551.11 378.899 542.515 389.043 542.515 389.043L502.547 396.681V365.096L538.217 333.891Z" fill="#263238"></path><path d="M542.517 352.625L543.553 362.563H554.493L552.631 352.625H542.517Z" fill="#263238"></path><path d="M534.522 362.567C534.54 362.576 534.421 362.834 534.177 363.321C533.915 363.796 533.606 364.545 533.03 365.406C531.977 367.179 530.206 369.65 527.448 372.138C524.714 374.647 521.022 377.127 516.681 379.374C512.35 381.647 507.405 383.733 502.31 386.105C492.107 390.78 482.873 395.01 476.119 398.104C472.8 399.594 470.094 400.808 468.153 401.679C467.249 402.071 466.525 402.385 465.975 402.624C465.474 402.834 465.207 402.937 465.199 402.917C465.19 402.9 465.44 402.763 465.925 402.518C466.464 402.254 467.173 401.907 468.057 401.473C469.978 400.562 472.658 399.289 475.945 397.729C482.681 394.593 491.891 390.308 502.069 385.572C507.17 383.197 512.116 381.129 516.433 378.894C520.761 376.686 524.433 374.271 527.171 371.829C529.931 369.409 531.732 367.006 532.837 365.282C533.955 363.562 534.464 362.536 534.522 362.567Z" fill="#455A64"></path><path d="M543.839 387.076C543.925 387.213 540.106 389.753 535.31 392.748C530.513 395.744 526.555 398.061 526.469 397.924C526.384 397.787 530.202 395.249 535 392.252C539.796 389.257 543.754 386.939 543.839 387.076Z" fill="#455A64"></path><path d="M552.63 352.625C552.692 352.614 552.943 353.633 553.319 355.383C553.695 357.132 554.197 359.61 554.762 362.512L554.825 362.836L554.492 362.837C552.811 362.842 550.988 362.849 549.083 362.855C547.135 362.848 545.27 362.841 543.553 362.836L543.305 362.835L543.281 362.591C542.998 359.679 542.777 357.191 542.64 355.429C542.504 353.667 542.454 352.632 542.517 352.625C542.578 352.618 542.743 353.642 542.974 355.394C543.204 357.146 543.5 359.628 543.825 362.535L543.553 362.29C545.27 362.284 547.134 362.278 549.083 362.271C550.988 362.278 552.812 362.283 554.492 362.289L554.223 362.613C553.698 359.703 553.269 357.212 552.988 355.445C552.705 353.678 552.569 352.636 552.63 352.625Z" fill="#455A64"></path><path d="M500.526 345.891C500.517 345.877 500.682 345.897 501.007 345.947C501.386 346.011 501.862 346.092 502.447 346.191C503.786 346.433 505.623 346.764 507.898 347.174C512.658 348.07 519.24 349.308 526.846 350.74L527.11 350.789L527.07 351.057C526.605 354.171 526.105 357.526 525.587 360.997L525.541 361.309L525.231 361.238C525.134 361.216 525.029 361.192 524.924 361.167C513.997 358.665 504.211 356.385 497.707 354.833L497.502 354.785L497.567 354.589C498.47 351.882 499.198 349.704 499.723 348.13C499.963 347.438 500.157 346.88 500.308 346.443C500.443 346.063 500.516 345.876 500.526 345.891C500.535 345.907 500.48 346.126 500.367 346.531C500.235 346.986 500.068 347.566 499.86 348.285C499.391 349.848 498.741 352.015 497.932 354.705L497.793 354.46C504.325 355.892 514.128 358.096 525.056 360.598C525.161 360.622 525.266 360.646 525.362 360.669L525.009 360.91C525.535 357.44 526.043 354.086 526.514 350.974L526.738 351.29C519.222 349.772 512.718 348.458 508.015 347.507C505.728 347.028 503.882 346.64 502.536 346.358C501.935 346.226 501.446 346.118 501.056 346.032C500.715 345.953 500.534 345.905 500.526 345.891Z" fill="#455A64"></path><path d="M446.652 400.503C446.64 400.433 447.782 400.142 449.673 399.921C451.559 399.7 454.208 399.581 457.103 399.912C460.001 400.226 462.56 400.938 464.341 401.604C466.122 402.283 467.15 402.866 467.122 402.923C467.082 403.012 465.999 402.565 464.208 401.995C462.413 401.436 459.888 400.802 457.038 400.492C454.191 400.166 451.585 400.219 449.708 400.332C447.829 400.446 446.667 400.592 446.652 400.503Z" fill="#455A64"></path><path d="M499.703 331.322C499.544 331.296 499.536 330.52 499.687 329.589C499.837 328.657 500.087 327.924 500.247 327.95C500.406 327.976 500.414 328.752 500.264 329.683C500.113 330.613 499.863 331.348 499.703 331.322Z" fill="#455A64"></path><path d="M501.949 332.022C501.79 331.994 501.819 331.09 502.012 330.005C502.207 328.919 502.492 328.062 502.651 328.091C502.811 328.119 502.782 329.021 502.588 330.107C502.394 331.193 502.108 332.05 501.949 332.022Z" fill="#455A64"></path><path d="M520.591 335.111C520.431 335.088 520.422 334.251 520.572 333.242C520.721 332.232 520.97 331.434 521.131 331.458C521.29 331.481 521.299 332.318 521.15 333.327C521.001 334.336 520.75 335.134 520.591 335.111Z" fill="#455A64"></path><path d="M522.712 336.095C522.552 336.075 522.547 335.083 522.701 333.882C522.855 332.679 523.11 331.721 523.27 331.743C523.431 331.763 523.435 332.754 523.282 333.956C523.127 335.157 522.873 336.115 522.712 336.095Z" fill="#455A64"></path><path d="M540.695 339.184C540.535 339.168 540.5 338.211 540.617 337.049C540.735 335.886 540.959 334.956 541.12 334.973C541.28 334.989 541.315 335.945 541.198 337.109C541.08 338.27 540.856 339.199 540.695 339.184Z" fill="#455A64"></path><path d="M543.417 339.884C543.256 339.875 543.188 338.798 543.265 337.48C543.342 336.162 543.535 335.1 543.696 335.109C543.856 335.118 543.925 336.195 543.849 337.514C543.771 338.833 543.578 339.894 543.417 339.884Z" fill="#455A64"></path><path d="M477.715 278.165L511.928 288.048C511.928 288.048 517.146 268.747 519.652 257.367C522.395 244.911 520.194 238.441 511.895 232.661C509.82 231.216 507.66 230.495 505.586 230.227C499.035 229.378 492.768 233.209 490.1 239.252C488.625 242.592 486.761 247.574 484.57 254.967C481.297 266.016 477.715 278.165 477.715 278.165Z" fill="#0F4A68"></path><path d="M519.651 257.366C519.666 257.369 519.635 257.569 519.563 257.953C519.478 258.379 519.366 258.938 519.225 259.642C518.911 261.115 518.436 263.267 517.792 265.979C516.509 271.404 514.588 279.078 512.184 288.115L512.114 288.377L511.853 288.302C505.332 286.427 498.02 284.323 490.313 282.107C485.915 280.833 481.644 279.596 477.635 278.435L477.36 278.355L477.442 278.082C480.817 266.817 483.659 257.012 485.891 250.077C487.031 246.619 488.062 243.899 488.824 242.055C489.206 241.133 489.519 240.429 489.738 239.956C489.959 239.485 490.084 239.243 490.099 239.25C490.114 239.257 490.021 239.512 489.83 239.996C489.626 240.522 489.352 241.231 489.006 242.127C488.302 243.99 487.326 246.722 486.236 250.189C484.104 257.136 481.329 266.975 477.986 278.244L477.793 277.891C481.804 279.047 486.075 280.278 490.475 281.546C498.176 283.781 505.482 285.901 512 287.792L511.669 287.978C514.116 278.958 516.109 271.304 517.479 265.903C518.148 263.238 518.68 261.114 519.058 259.605C519.232 258.909 519.371 258.355 519.477 257.935C519.578 257.557 519.636 257.363 519.651 257.366Z" fill="#263238"></path><path d="M517.353 238.571C517.271 238.628 516.591 237.604 515.192 236.239C513.806 234.876 511.614 233.223 508.828 232.191C506.041 231.158 503.3 230.985 501.361 231.118C499.411 231.241 498.228 231.576 498.203 231.478C498.193 231.442 498.476 231.319 499.01 231.159C499.543 230.999 500.332 230.821 501.325 230.705C503.299 230.463 506.143 230.572 509.03 231.642C511.917 232.71 514.147 234.48 515.487 235.95C516.164 236.684 516.648 237.333 516.948 237.803C517.249 238.272 517.384 238.549 517.353 238.571Z" fill="#263238"></path><path d="M481.147 279.279L479.42 285.024L446.692 270.863L439.619 281.727C439.619 281.727 465.315 300.804 473.365 306.896C481.415 312.988 490.733 310.855 496.149 303.736C501.709 296.426 503.861 285.935 503.861 285.935L481.147 279.279Z" fill="#FFBE9D"></path><path d="M482.905 292.184C482.735 292.215 482.344 290.461 481.369 288.507C480.412 286.543 479.259 285.165 479.388 285.05C479.488 284.939 480.89 286.194 481.894 288.249C482.911 290.295 483.054 292.172 482.905 292.184Z" fill="#EB996E"></path><path d="M451.781 273.474L447.457 270.486C445.156 263.654 440.882 251.263 439.618 251.633C438.226 252.042 437.648 253.262 438.048 255.897C439.003 262.205 437.437 264.984 433.753 264.151C432.486 263.865 421.465 262.102 421.465 262.102C421.465 262.102 418.424 263.844 421.48 266.822C421.48 266.822 419.994 270.708 424.052 271.647C424.052 271.647 424.557 276.048 427.605 276.229C427.605 276.229 430.86 278.047 437.703 280.577L443.193 283.872L451.781 273.474Z" fill="#FFBE9D"></path><path d="M429.828 269.25C429.789 269.461 427.639 268.984 425.138 268.112C424.235 267.816 423.395 267.535 422.701 267.367L422.788 266.882L423.206 266.97L423.113 267.415C422.053 267.093 421.396 266.842 421.419 266.752C421.441 266.664 422.139 266.755 423.226 266.974L423.132 267.418L422.707 267.367L422.793 266.882C423.549 267.004 424.409 267.258 425.32 267.555C427.842 268.433 429.841 269.14 429.828 269.25Z" fill="#EB996E"></path><path d="M430.656 274.218C430.612 274.385 429.023 274.038 427.185 273.305C425.339 272.589 423.939 271.762 424.021 271.609C424.093 271.476 425.568 272.05 427.398 272.76C429.222 273.488 430.693 274.072 430.656 274.218Z" fill="#EB996E"></path></svg>